<?xml version="1.0" encoding="utf-8"?>
<!-- Generator: Adobe Illustrator 16.0.0, SVG Export Plug-In . SVG Version: 6.00 Build 0)  -->
<!DOCTYPE svg PUBLIC "-//W3C//DTD SVG 1.1//EN" "http://www.w3.org/Graphics/SVG/1.1/DTD/svg11.dtd">
<svg version="1.1" id="Layer_1" xmlns="http://www.w3.org/2000/svg" xmlns:xlink="http://www.w3.org/1999/xlink" x="0px" y="0px"
	 width="1200px" height="1200px" viewBox="0 0 1200 1200" enable-background="new 0 0 1200 1200" xml:space="preserve">
<g>
	<path d="M307.167,341.333v-175h68.75v18.75h-43.75v56.25h31.25v18.75h-31.25v62.5h43.75v18.75H307.167z"/>
	<path d="M408.045,343.091c-5.469,0-9.863-1.937-13.184-5.811c-3.32-3.873-4.98-8.675-4.98-14.404V216.333h25v98.926
		c0,2.604,0.796,4.721,2.393,6.348c1.595,1.628,3.662,2.441,6.201,2.441c1.367,0,2.701-0.162,4.004-0.488
		c1.302-0.325,2.588-0.894,3.857-1.709c1.27-0.813,2.261-1.465,2.979-1.953c0.716-0.488,1.741-1.318,3.076-2.49
		c1.333-1.172,2.164-1.888,2.49-2.148v-98.926h25v125h-25v-13.477c-2.475,2.148-4.282,3.711-5.42,4.688
		c-1.14,0.977-2.881,2.295-5.225,3.955s-4.411,2.866-6.201,3.613c-1.792,0.749-4.021,1.431-6.689,2.051
		C413.676,342.782,410.91,343.091,408.045,343.091z"/>
	<path d="M486.561,341.333v-125h25v16.699c2.539-4.947,6.233-9.261,11.084-12.939c4.849-3.677,10.237-5.518,16.162-5.518
		c0.195,0,1.529,0.131,4.004,0.391v27.637c-4.624-1.822-9.245-2.734-13.867-2.734c-5.209,0-9.409,1.562-12.598,4.688
		c-3.19,3.125-4.785,7.26-4.785,12.402v84.375H486.561z"/>
	<path d="M617.226,331.373c-5.795,7.812-15.397,11.719-28.809,11.719c-13.413,0-23.015-3.906-28.809-11.719
		c-5.795-7.812-8.691-19.075-8.691-33.789v-37.5c0-14.712,2.896-25.977,8.691-33.789c5.794-7.812,15.396-11.719,28.809-11.719
		c13.412,0,23.014,3.906,28.809,11.719c5.793,7.812,8.691,19.077,8.691,33.789v37.5C625.917,312.297,623.019,323.56,617.226,331.373
		z M583.778,321.802c1.333,0.522,2.881,0.781,4.639,0.781s3.304-0.259,4.639-0.781c1.333-0.521,2.441-1.155,3.32-1.904
		c0.879-0.748,1.611-1.855,2.197-3.32s1.041-2.75,1.367-3.857c0.325-1.106,0.552-2.701,0.684-4.785
		c0.13-2.083,0.21-3.726,0.244-4.932c0.032-1.204,0.049-3.011,0.049-5.42v-37.5c0-2.408-0.017-4.214-0.049-5.42
		c-0.034-1.204-0.114-2.847-0.244-4.932c-0.131-2.083-0.358-3.677-0.684-4.785c-0.327-1.106-0.781-2.393-1.367-3.857
		s-1.318-2.571-2.197-3.32c-0.879-0.748-1.987-1.382-3.32-1.904c-1.335-0.521-2.881-0.781-4.639-0.781s-3.305,0.261-4.639,0.781
		c-1.335,0.522-2.441,1.157-3.32,1.904c-0.879,0.749-1.611,1.855-2.197,3.32s-1.042,2.751-1.367,3.857
		c-0.327,1.108-0.554,2.702-0.684,4.785c-0.131,2.084-0.212,3.728-0.244,4.932c-0.034,1.206-0.049,3.012-0.049,5.42v37.5
		c0,2.409,0.015,4.216,0.049,5.42c0.032,1.206,0.113,2.849,0.244,4.932c0.13,2.084,0.357,3.679,0.684,4.785
		c0.325,1.108,0.781,2.393,1.367,3.857s1.318,2.573,2.197,3.32C581.336,320.647,582.443,321.282,583.778,321.802z"/>
	<path d="M646.425,378.833v-162.5h25v12.5c2.018-2.148,3.418-3.613,4.199-4.395s2.132-1.985,4.053-3.613
		c1.92-1.626,3.58-2.767,4.98-3.418c1.399-0.65,3.189-1.285,5.371-1.904c2.181-0.618,4.443-0.928,6.787-0.928
		c4.231,0,8.008,0.766,11.328,2.295c3.32,1.53,6.055,3.369,8.203,5.518s3.971,5.225,5.469,9.229
		c1.497,4.004,2.62,7.634,3.369,10.889c0.748,3.256,1.318,7.651,1.709,13.184c0.391,5.534,0.618,10.01,0.684,13.428
		c0.064,3.418,0.098,8.122,0.098,14.111v1.855c0,5.469-0.277,10.742-0.83,15.82c-0.554,5.078-1.562,10.239-3.027,15.479
		c-1.465,5.241-3.32,9.782-5.566,13.623c-2.246,3.842-5.241,6.982-8.984,9.424c-3.744,2.441-8.024,3.662-12.842,3.662
		c-8.464,0-16.797-4.329-25-12.988v48.73H646.425z M690.175,322.583c2.669,0,4.898-0.977,6.689-2.93
		c1.79-1.953,3.092-4.736,3.906-8.35c0.813-3.613,1.367-7.193,1.66-10.742c0.293-3.548,0.439-7.698,0.439-12.451l-0.195-16.504
		c0-2.93-0.017-5.289-0.049-7.08c-0.033-1.79-0.146-4.166-0.342-7.129c-0.195-2.962-0.473-5.386-0.83-7.275
		c-0.358-1.888-0.896-3.97-1.611-6.25c-0.717-2.278-1.579-4.068-2.588-5.371c-1.01-1.302-2.312-2.408-3.906-3.32
		c-1.596-0.911-3.402-1.367-5.42-1.367c-0.977,0-1.904,0.065-2.783,0.195c-0.879,0.131-1.791,0.342-2.734,0.635
		c-0.944,0.293-1.726,0.554-2.344,0.781c-0.619,0.229-1.416,0.603-2.393,1.123c-0.977,0.522-1.677,0.896-2.1,1.123
		c-0.424,0.229-1.156,0.668-2.197,1.318c-1.042,0.651-1.693,1.042-1.953,1.172v77.344
		C677.153,320.891,683.403,322.583,690.175,322.583z"/>
	<path d="M783.534,343.091c-6.055,0-11.312-1.042-15.771-3.125c-4.46-2.083-8.008-4.8-10.645-8.154
		c-2.637-3.353-4.77-7.649-6.396-12.891c-1.628-5.24-2.751-10.481-3.369-15.723c-0.619-5.24-0.993-11.343-1.123-18.311
		c-0.195-5.469-0.195-10.938,0-16.406c0.195-6.509,0.635-12.288,1.318-17.334c0.684-5.044,1.871-9.944,3.564-14.697
		c1.692-4.751,3.89-8.658,6.592-11.719c2.701-3.06,6.25-5.518,10.645-7.373s9.521-2.783,15.381-2.783c5.338,0,10.042,0.7,14.111,2.1
		c4.068,1.401,7.454,3.516,10.156,6.348c2.701,2.832,4.947,5.974,6.738,9.424c1.79,3.452,3.141,7.634,4.053,12.549
		c0.911,4.917,1.546,9.75,1.904,14.502c0.357,4.753,0.537,10.222,0.537,16.406v2.93h-50v6.25c0,0.847,0,2.182,0,4.004
		c-0.131,2.409-0.146,4.899-0.049,7.471c0.098,2.573,0.211,5.095,0.342,7.568c0.13,2.475,0.488,4.834,1.074,7.08
		s1.302,4.216,2.148,5.908c0.846,1.694,2.034,3.027,3.564,4.004c1.529,0.977,3.336,1.465,5.42,1.465
		c2.604,0,4.752-0.503,6.445-1.514c1.692-1.009,2.945-2.522,3.76-4.541c0.813-2.017,1.383-4.036,1.709-6.055
		c0.325-2.017,0.521-4.556,0.586-7.617v-5.273h24.805v4.98c-0.586,13.347-3.874,23.438-9.863,30.273
		C805.181,339.673,795.969,343.091,783.534,343.091z M771.229,266.333h24.805v-7.52c-0.065-3.32-0.261-6.216-0.586-8.691
		c-0.326-2.474-0.896-4.947-1.709-7.422c-0.814-2.474-2.067-4.361-3.76-5.664c-1.693-1.302-3.776-1.953-6.25-1.953
		c-2.539,0-4.672,0.684-6.396,2.051c-1.726,1.367-2.995,3.337-3.809,5.908c-0.814,2.573-1.384,5.095-1.709,7.568
		c-0.326,2.475-0.521,5.437-0.586,8.887V266.333z"/>
</g>
</svg>
