<?xml version="1.0" encoding="utf-8"?>
<!-- Generator: Adobe Illustrator 16.0.0, SVG Export Plug-In . SVG Version: 6.00 Build 0)  -->
<!DOCTYPE svg PUBLIC "-//W3C//DTD SVG 1.1//EN" "http://www.w3.org/Graphics/SVG/1.1/DTD/svg11.dtd">
<svg version="1.1" id="Layer_1" xmlns="http://www.w3.org/2000/svg" xmlns:xlink="http://www.w3.org/1999/xlink" x="0px" y="0px"
	 width="360px" height="660px" viewBox="0 0 360 660" enable-background="new 0 0 360 660" xml:space="preserve">
<rect x="-13.4" y="-13.393" display="none" fill="#939598" width="382.481" height="679.466"/>
<polygon fill="#3F565D" points="162.399,4.071 162.399,138.752 94.151,138.752 94.151,161.623 162.399,161.623 162.399,190.423 
	162.399,229.387 162.399,254.799 185.38,254.799 185.38,232.387 218.66,192 218.66,4.071 "/>
<polygon fill="#3F565D" points="192.014,352.498 222.852,352.498 222.852,577.821 164.403,577.821 164.403,511.685 137.698,511.685 
	137.698,483.232 164.403,483.232 164.403,391.124 139.341,391.124 139.341,384.204 164.403,384.204 164.403,355.578 129.76,331.735 
	129.76,255.187 162.197,224.84 185.512,242.057 176.257,268.195 212.45,301.144 192.014,327.89 "/>
<circle fill="#FFFFFF" cx="185.833" cy="213" r="6.007"/>
<g enable-background="new    ">
	<path fill="#FFFFFF" d="M224.341,220v-21h3v18.75h5.25V220H224.341z"/>
	<path fill="#FFFFFF" d="M241.532,218.804c-0.695,0.938-1.848,1.406-3.457,1.406s-2.762-0.469-3.457-1.406s-1.043-2.289-1.043-4.055
		v-4.5c0-1.766,0.348-3.117,1.043-4.055s1.848-1.406,3.457-1.406s2.762,0.469,3.457,1.406s1.043,2.289,1.043,4.055v4.5
		C242.575,216.515,242.228,217.867,241.532,218.804z M237.519,217.656c0.16,0.062,0.346,0.094,0.557,0.094s0.396-0.031,0.557-0.094
		s0.293-0.139,0.398-0.229s0.193-0.223,0.264-0.398s0.125-0.33,0.164-0.463s0.066-0.324,0.082-0.574s0.025-0.447,0.029-0.592
		s0.006-0.361,0.006-0.65v-4.5c0-0.289-0.002-0.506-0.006-0.65s-0.014-0.342-0.029-0.592s-0.043-0.441-0.082-0.574
		s-0.094-0.287-0.164-0.463s-0.158-0.309-0.264-0.398s-0.238-0.166-0.398-0.229s-0.346-0.094-0.557-0.094s-0.396,0.031-0.557,0.094
		s-0.293,0.139-0.398,0.229s-0.193,0.223-0.264,0.398s-0.125,0.33-0.164,0.463s-0.066,0.324-0.082,0.574s-0.025,0.447-0.029,0.592
		s-0.006,0.361-0.006,0.65v4.5c0,0.289,0.002,0.506,0.006,0.65s0.014,0.342,0.029,0.592s0.043,0.441,0.082,0.574
		s0.094,0.287,0.164,0.463s0.158,0.309,0.264,0.398S237.358,217.594,237.519,217.656z"/>
	<path fill="#FFFFFF" d="M245.036,220v-15h3v1.617c0.445-0.406,0.809-0.717,1.09-0.932s0.67-0.418,1.166-0.609
		s1.025-0.287,1.588-0.287c0.641,0,1.16,0.234,1.559,0.703s0.598,1.043,0.598,1.723V220h-3v-11.25c0-0.523-0.074-0.904-0.223-1.143
		s-0.449-0.357-0.902-0.357c-0.258,0-0.514,0.053-0.768,0.158s-0.443,0.203-0.568,0.293s-0.305,0.232-0.539,0.428V220H245.036z"/>
	<path fill="#FFFFFF" d="M260.165,220.211c-0.664,0-1.244-0.188-1.74-0.562s-0.879-0.883-1.148-1.523s-0.471-1.307-0.604-1.998
		s-0.215-1.436-0.246-2.232c-0.016-0.367-0.016-1.266,0-2.695c0.016-0.516,0.039-0.982,0.07-1.4s0.084-0.854,0.158-1.307
		s0.168-0.854,0.281-1.201s0.264-0.684,0.451-1.008s0.406-0.592,0.656-0.803s0.551-0.379,0.902-0.504s0.742-0.188,1.172-0.188
		c0.336,0,0.65,0.045,0.943,0.135s0.572,0.23,0.838,0.422s0.479,0.361,0.639,0.51s0.369,0.359,0.627,0.633v-7.477h3V220h-3v-1.359
		c-0.453,0.469-0.914,0.848-1.383,1.137S260.774,220.211,260.165,220.211z M260.915,217.75c0.727,0,1.477-0.156,2.25-0.469v-9.434
		c-0.672-0.398-1.422-0.598-2.25-0.598c-0.297,0-0.547,0.072-0.75,0.217s-0.355,0.355-0.457,0.633s-0.176,0.562-0.223,0.855
		s-0.074,0.639-0.082,1.037c-0.031,1.75-0.031,3.137,0,4.16c0.008,0.5,0.035,0.945,0.082,1.336s0.123,0.768,0.229,1.131
		s0.26,0.643,0.463,0.838S260.626,217.75,260.915,217.75z"/>
	<path fill="#FFFFFF" d="M276.642,218.804c-0.695,0.938-1.848,1.406-3.457,1.406s-2.762-0.469-3.457-1.406s-1.043-2.289-1.043-4.055
		v-4.5c0-1.766,0.348-3.117,1.043-4.055s1.848-1.406,3.457-1.406s2.762,0.469,3.457,1.406s1.043,2.289,1.043,4.055v4.5
		C277.685,216.515,277.337,217.867,276.642,218.804z M272.628,217.656c0.16,0.062,0.346,0.094,0.557,0.094s0.396-0.031,0.557-0.094
		s0.293-0.139,0.398-0.229s0.193-0.223,0.264-0.398s0.125-0.33,0.164-0.463s0.066-0.324,0.082-0.574s0.025-0.447,0.029-0.592
		s0.006-0.361,0.006-0.65v-4.5c0-0.289-0.002-0.506-0.006-0.65s-0.014-0.342-0.029-0.592s-0.043-0.441-0.082-0.574
		s-0.094-0.287-0.164-0.463s-0.158-0.309-0.264-0.398s-0.238-0.166-0.398-0.229s-0.346-0.094-0.557-0.094s-0.396,0.031-0.557,0.094
		s-0.293,0.139-0.398,0.229s-0.193,0.223-0.264,0.398s-0.125,0.33-0.164,0.463s-0.066,0.324-0.082,0.574s-0.025,0.447-0.029,0.592
		s-0.006,0.361-0.006,0.65v4.5c0,0.289,0.002,0.506,0.006,0.65s0.014,0.342,0.029,0.592s0.043,0.441,0.082,0.574
		s0.094,0.287,0.164,0.463s0.158,0.309,0.264,0.398S272.468,217.594,272.628,217.656z"/>
	<path fill="#FFFFFF" d="M280.146,220v-15h3v1.617c0.445-0.406,0.809-0.717,1.09-0.932s0.67-0.418,1.166-0.609
		s1.025-0.287,1.588-0.287c0.641,0,1.16,0.234,1.559,0.703s0.598,1.043,0.598,1.723V220h-3v-11.25c0-0.523-0.074-0.904-0.223-1.143
		s-0.449-0.357-0.902-0.357c-0.258,0-0.514,0.053-0.768,0.158s-0.443,0.203-0.568,0.293s-0.305,0.232-0.539,0.428V220H280.146z"/>
</g>
<g enable-background="new    ">
	<path fill="#FFFFFF" d="M80.695,341.666v-10.084h1.096l1.945,8.707c0.238-1.141,0.555-2.536,0.949-4.187s0.727-3.157,0.996-4.521
		h1.096v10.084h-0.791v-8.068l-1.863,8.068h-0.773l-1.863-8.062v8.062H80.695z"/>
	<path fill="#FFFFFF" d="M91.054,341.666l-0.111-0.85c-0.188,0.328-0.419,0.578-0.694,0.75s-0.538,0.258-0.788,0.258
		c-0.363,0-0.686-0.144-0.967-0.431s-0.422-0.663-0.422-1.128c0-0.125,0.002-0.226,0.006-0.302s0.015-0.175,0.032-0.296
		s0.043-0.223,0.076-0.305s0.082-0.183,0.146-0.302s0.144-0.225,0.237-0.316s0.211-0.197,0.352-0.316s0.303-0.232,0.486-0.34
		s0.399-0.223,0.647-0.346s0.522-0.247,0.823-0.372v-0.059c0-0.398-0.018-0.739-0.053-1.022s-0.078-0.502-0.129-0.656
		s-0.116-0.274-0.196-0.36s-0.155-0.14-0.226-0.161s-0.156-0.032-0.258-0.032c-0.105,0-0.199,0.015-0.281,0.044
		s-0.17,0.086-0.264,0.17s-0.172,0.221-0.234,0.41s-0.102,0.427-0.117,0.712v0.041h-0.914c0.047-0.613,0.228-1.095,0.542-1.444
		s0.728-0.524,1.239-0.524c0.285,0,0.537,0.046,0.756,0.138s0.392,0.209,0.519,0.352s0.229,0.313,0.308,0.513
		s0.131,0.393,0.158,0.58s0.041,0.389,0.041,0.604v3.375c0,0.246,0.009,0.504,0.026,0.773s0.036,0.477,0.056,0.621l0.023,0.223
		H91.054z M90.878,340.236v-2.473c-0.285,0.199-0.51,0.359-0.674,0.48s-0.337,0.263-0.519,0.425s-0.318,0.31-0.41,0.442
		s-0.168,0.284-0.229,0.454s-0.091,0.349-0.091,0.536c0,0.336,0.07,0.585,0.211,0.747s0.307,0.243,0.498,0.243
		c0.223,0,0.448-0.08,0.677-0.24S90.75,340.486,90.878,340.236z"/>
	<path fill="#FFFFFF" d="M93.023,340.16v-5.514h0.891v5.531c0,0.348,0.068,0.601,0.205,0.759s0.316,0.237,0.539,0.237
		c0.184,0,0.38-0.063,0.589-0.19s0.401-0.3,0.577-0.519v-5.818h0.879v7.02h-0.879v-0.662c-0.188,0.273-0.412,0.479-0.674,0.615
		s-0.533,0.205-0.814,0.205c-0.348,0-0.653-0.146-0.917-0.437S93.023,340.687,93.023,340.16z"/>
	<path fill="#FFFFFF" d="M98.296,341.666v-7.02h0.879v0.99c0.109-0.363,0.307-0.636,0.592-0.817s0.58-0.276,0.885-0.284v0.885
		c-0.043-0.016-0.088-0.023-0.135-0.023c-0.895,0-1.342,0.344-1.342,1.031v5.238H98.296z"/>
	<path fill="#FFFFFF" d="M101.496,333.041v-1.049h0.879v1.049H101.496z M101.496,341.666v-7.02h0.879v7.02H101.496z"/>
	<path fill="#FFFFFF" d="M104.074,340.008v-4.869h-0.955v-0.492h0.955v-2.49h0.879v2.49h1.125v0.492h-1.125v4.828
		c0,0.168,0.002,0.3,0.006,0.396s0.017,0.199,0.038,0.311s0.053,0.194,0.094,0.249s0.1,0.101,0.176,0.138s0.171,0.056,0.284,0.056
		c0.191,0,0.363-0.016,0.516-0.047v0.604c-0.262,0.066-0.516,0.1-0.762,0.1c-0.219,0-0.406-0.034-0.562-0.103
		s-0.276-0.153-0.36-0.255s-0.15-0.236-0.199-0.404s-0.079-0.325-0.091-0.472S104.074,340.215,104.074,340.008z"/>
	<path fill="#FFFFFF" d="M109.64,341.666l-0.111-0.85c-0.188,0.328-0.419,0.578-0.694,0.75s-0.538,0.258-0.788,0.258
		c-0.363,0-0.686-0.144-0.967-0.431s-0.422-0.663-0.422-1.128c0-0.125,0.002-0.226,0.006-0.302s0.015-0.175,0.032-0.296
		s0.043-0.223,0.076-0.305s0.082-0.183,0.146-0.302s0.144-0.225,0.237-0.316s0.211-0.197,0.352-0.316s0.303-0.232,0.486-0.34
		s0.399-0.223,0.647-0.346s0.522-0.247,0.823-0.372v-0.059c0-0.398-0.018-0.739-0.053-1.022s-0.078-0.502-0.129-0.656
		s-0.116-0.274-0.196-0.36s-0.155-0.14-0.226-0.161s-0.156-0.032-0.258-0.032c-0.105,0-0.199,0.015-0.281,0.044
		s-0.17,0.086-0.264,0.17s-0.172,0.221-0.234,0.41s-0.102,0.427-0.117,0.712v0.041h-0.914c0.047-0.613,0.228-1.095,0.542-1.444
		s0.728-0.524,1.239-0.524c0.285,0,0.537,0.046,0.756,0.138s0.392,0.209,0.519,0.352s0.229,0.313,0.308,0.513
		s0.131,0.393,0.158,0.58s0.041,0.389,0.041,0.604v3.375c0,0.246,0.009,0.504,0.026,0.773s0.036,0.477,0.056,0.621l0.023,0.223
		H109.64z M109.464,340.236v-2.473c-0.285,0.199-0.51,0.359-0.674,0.48s-0.337,0.263-0.519,0.425s-0.318,0.31-0.41,0.442
		s-0.168,0.284-0.229,0.454s-0.091,0.349-0.091,0.536c0,0.336,0.07,0.585,0.211,0.747s0.307,0.243,0.498,0.243
		c0.223,0,0.448-0.08,0.677-0.24S109.335,340.486,109.464,340.236z"/>
	<path fill="#FFFFFF" d="M111.656,341.666v-7.02h0.879v0.662c0.188-0.273,0.412-0.479,0.674-0.615s0.533-0.205,0.814-0.205
		c0.348,0,0.653,0.146,0.917,0.437s0.396,0.7,0.396,1.228v5.514h-0.891v-5.531c0-0.348-0.068-0.601-0.205-0.759
		s-0.316-0.237-0.539-0.237c-0.184,0-0.38,0.063-0.589,0.19s-0.401,0.3-0.577,0.519v5.818H111.656z"/>
	<path fill="#FFFFFF" d="M116.765,333.041v-1.049h0.879v1.049H116.765z M116.765,341.666v-7.02h0.879v7.02H116.765z"/>
	<path fill="#FFFFFF" d="M121.787,341.666l-0.111-0.85c-0.188,0.328-0.419,0.578-0.694,0.75s-0.538,0.258-0.788,0.258
		c-0.363,0-0.686-0.144-0.967-0.431s-0.422-0.663-0.422-1.128c0-0.125,0.002-0.226,0.006-0.302s0.015-0.175,0.032-0.296
		s0.043-0.223,0.076-0.305s0.082-0.183,0.146-0.302s0.144-0.225,0.237-0.316s0.211-0.197,0.352-0.316s0.303-0.232,0.486-0.34
		s0.399-0.223,0.647-0.346s0.522-0.247,0.823-0.372v-0.059c0-0.398-0.018-0.739-0.053-1.022s-0.078-0.502-0.129-0.656
		s-0.116-0.274-0.196-0.36s-0.155-0.14-0.226-0.161s-0.156-0.032-0.258-0.032c-0.105,0-0.199,0.015-0.281,0.044
		s-0.17,0.086-0.264,0.17s-0.172,0.221-0.234,0.41s-0.102,0.427-0.117,0.712v0.041h-0.914c0.047-0.613,0.228-1.095,0.542-1.444
		s0.728-0.524,1.239-0.524c0.285,0,0.537,0.046,0.756,0.138s0.392,0.209,0.519,0.352s0.229,0.313,0.308,0.513
		s0.131,0.393,0.158,0.58s0.041,0.389,0.041,0.604v3.375c0,0.246,0.009,0.504,0.026,0.773s0.036,0.477,0.056,0.621l0.023,0.223
		H121.787z M121.611,340.236v-2.473c-0.285,0.199-0.51,0.359-0.674,0.48s-0.337,0.263-0.519,0.425s-0.318,0.31-0.41,0.442
		s-0.168,0.284-0.229,0.454s-0.091,0.349-0.091,0.536c0,0.336,0.07,0.585,0.211,0.747s0.307,0.243,0.498,0.243
		c0.223,0,0.448-0.08,0.677-0.24S121.482,340.486,121.611,340.236z"/>
</g>
<g enable-background="new    ">
	<path fill="#FFFFFF" d="M193.931,243.323v-10.084h3.545v0.715h-2.654v3.82h2.086v0.674h-2.086v4.875H193.931z"/>
	<path fill="#FFFFFF" d="M198.091,243.323v-7.02h0.879v0.99c0.109-0.363,0.307-0.636,0.592-0.817s0.58-0.276,0.885-0.284v0.885
		c-0.043-0.016-0.088-0.023-0.135-0.023c-0.895,0-1.342,0.344-1.342,1.031v5.238H198.091z"/>
	<path fill="#FFFFFF" d="M203.774,243.323l-0.111-0.85c-0.188,0.328-0.419,0.578-0.694,0.75s-0.538,0.258-0.788,0.258
		c-0.363,0-0.686-0.144-0.967-0.431s-0.422-0.663-0.422-1.128c0-0.125,0.002-0.226,0.006-0.302s0.015-0.175,0.032-0.296
		s0.043-0.223,0.076-0.305s0.082-0.183,0.146-0.302s0.144-0.225,0.237-0.316s0.211-0.197,0.352-0.316s0.303-0.232,0.486-0.34
		s0.399-0.223,0.647-0.346s0.522-0.247,0.823-0.372v-0.059c0-0.398-0.018-0.739-0.053-1.022s-0.078-0.502-0.129-0.656
		s-0.116-0.274-0.196-0.36s-0.155-0.14-0.226-0.161s-0.156-0.032-0.258-0.032c-0.105,0-0.199,0.015-0.281,0.044
		s-0.17,0.086-0.264,0.17s-0.172,0.221-0.234,0.41s-0.102,0.427-0.117,0.712v0.041h-0.914c0.047-0.613,0.228-1.095,0.542-1.444
		s0.728-0.524,1.239-0.524c0.285,0,0.537,0.046,0.756,0.138s0.392,0.209,0.519,0.352s0.229,0.313,0.308,0.513
		s0.131,0.393,0.158,0.58s0.041,0.389,0.041,0.604v3.375c0,0.246,0.009,0.504,0.026,0.773s0.036,0.477,0.056,0.621l0.023,0.223
		H203.774z M203.599,241.893v-2.473c-0.285,0.199-0.51,0.359-0.674,0.48s-0.337,0.263-0.519,0.425s-0.318,0.31-0.41,0.442
		s-0.168,0.284-0.229,0.454s-0.091,0.349-0.091,0.536c0,0.336,0.07,0.585,0.211,0.747s0.307,0.243,0.498,0.243
		c0.223,0,0.448-0.08,0.677-0.24S203.47,242.143,203.599,241.893z"/>
	<path fill="#FFFFFF" d="M205.79,243.323v-7.02h0.879v0.662c0.188-0.273,0.412-0.479,0.674-0.615s0.533-0.205,0.814-0.205
		c0.348,0,0.653,0.146,0.917,0.437s0.396,0.7,0.396,1.228v5.514h-0.891v-5.531c0-0.348-0.068-0.601-0.205-0.759
		s-0.316-0.237-0.539-0.237c-0.184,0-0.38,0.063-0.589,0.19s-0.401,0.3-0.577,0.519v5.818H205.79z"/>
	<path fill="#FFFFFF" d="M210.747,239.995v-0.363c0-0.312,0.002-0.552,0.006-0.718s0.018-0.393,0.041-0.68s0.058-0.511,0.103-0.671
		s0.114-0.344,0.208-0.551s0.207-0.364,0.34-0.472s0.303-0.2,0.51-0.278s0.443-0.117,0.709-0.117c0.27,0,0.507,0.044,0.712,0.132
		s0.371,0.202,0.498,0.343s0.231,0.318,0.313,0.533s0.141,0.43,0.176,0.645s0.061,0.461,0.076,0.738
		c0,0.008,0.001,0.019,0.003,0.032s0.003,0.024,0.003,0.032h-0.879v-0.053c-0.023-0.66-0.101-1.127-0.231-1.4
		s-0.354-0.41-0.671-0.41c-0.152,0-0.284,0.021-0.396,0.064s-0.205,0.119-0.281,0.229s-0.138,0.233-0.185,0.372
		s-0.084,0.326-0.111,0.562s-0.045,0.479-0.053,0.729s-0.012,0.562-0.012,0.938v0.363c0,1.098,0.068,1.854,0.205,2.271
		s0.414,0.624,0.832,0.624c0.309,0,0.528-0.141,0.659-0.422s0.212-0.764,0.243-1.447v-0.059h0.885v0.041
		c-0.012,0.297-0.034,0.558-0.067,0.782s-0.09,0.448-0.17,0.671s-0.184,0.405-0.311,0.548s-0.295,0.258-0.504,0.346
		s-0.454,0.132-0.735,0.132c-0.234,0-0.445-0.023-0.633-0.07s-0.347-0.125-0.478-0.234s-0.244-0.218-0.34-0.325
		s-0.172-0.261-0.229-0.46s-0.102-0.369-0.135-0.51s-0.058-0.342-0.073-0.604s-0.024-0.468-0.026-0.618
		S210.747,240.288,210.747,239.995z"/>
	<path fill="#FFFFFF" d="M215.54,240.089v-0.979c0.004-0.488,0.039-0.911,0.105-1.269s0.153-0.644,0.261-0.858
		s0.246-0.386,0.416-0.513s0.345-0.213,0.524-0.258s0.391-0.067,0.633-0.067c0.629,0,1.081,0.223,1.356,0.668
		s0.413,1.148,0.413,2.109c0,0.293-0.004,0.533-0.012,0.721h-2.812v1.072c0,0.461,0.022,0.839,0.067,1.134s0.116,0.517,0.214,0.665
		s0.205,0.248,0.322,0.299s0.266,0.076,0.445,0.076c0.262,0,0.481-0.132,0.659-0.396s0.269-0.704,0.272-1.321h0.82
		c-0.023,0.266-0.055,0.502-0.094,0.709s-0.101,0.414-0.185,0.621s-0.188,0.379-0.311,0.516s-0.282,0.248-0.478,0.334
		s-0.42,0.129-0.674,0.129c-0.496,0-0.882-0.099-1.157-0.296s-0.478-0.541-0.606-1.031S215.532,240.975,215.54,240.089z
		 M216.431,239.21h1.945c-0.004-0.156-0.004-0.314,0-0.475s0.002-0.321-0.006-0.483s-0.019-0.317-0.032-0.466
		s-0.04-0.286-0.079-0.413s-0.088-0.237-0.146-0.331s-0.139-0.168-0.24-0.223s-0.219-0.082-0.352-0.082
		c-0.215,0-0.392,0.039-0.53,0.117s-0.246,0.17-0.322,0.275s-0.132,0.283-0.167,0.533s-0.056,0.47-0.062,0.659
		S216.431,238.807,216.431,239.21z"/>
</g>
<image display="none" overflow="visible" opacity="0.4" enable-background="new    " width="4000" height="2120" xlink:href="map.png"  transform="matrix(0.32 0 0 0.3244 -410.6021 -21.6692)">
</image>
<line fill="none" stroke="#FFFFFF" stroke-miterlimit="10" x1="185.833" y1="-13.393" x2="185.833" y2="585.92"/>
<line fill="none" stroke="#FFFFFF" stroke-width="6" stroke-linecap="round" stroke-miterlimit="10" x1="84" y1="154" x2="84" y2="195.603"/>
<line fill="none" stroke="#FFFFFF" stroke-width="6" stroke-linecap="round" stroke-miterlimit="10" x1="68" y1="189.073" x2="68" y2="230.676"/>
<line fill="none" stroke="#FFFFFF" stroke-width="6" stroke-linecap="round" stroke-miterlimit="10" x1="84" y1="226.021" x2="84" y2="267.624"/>
</svg>
