<?xml version="1.0" encoding="utf-8"?>
<!-- Generator: Adobe Illustrator 16.0.0, SVG Export Plug-In . SVG Version: 6.00 Build 0)  -->
<!DOCTYPE svg PUBLIC "-//W3C//DTD SVG 1.1//EN" "http://www.w3.org/Graphics/SVG/1.1/DTD/svg11.dtd">
<svg version="1.1" id="Ebene_1" xmlns="http://www.w3.org/2000/svg" xmlns:xlink="http://www.w3.org/1999/xlink" x="0px" y="0px"
	 width="360px" height="660px" viewBox="0 0 360 660" enable-background="new 0 0 360 660" xml:space="preserve">
<rect x="-13.4" y="-13.393" display="none" fill="#939598" width="382.481" height="679.466"/>
<polygon fill="#FFFFFF" points="-105.765,4.07 -105.765,192 -139.044,232.39 -139.044,254.8 -162.024,254.8 -162.024,161.62 
	-230.274,161.62 -230.274,138.75 -162.024,138.75 -162.024,4.07 "/>
<polygon fill="#FFFFFF" points="-101.575,407.74 -101.575,655.93 -161.125,655.93 -161.125,583.08 -188.325,583.08 -188.325,551.74 
	-161.125,551.74 -161.125,450.29 -186.655,450.29 -186.655,442.66 -161.125,442.66 -161.125,411.133 -196.415,384.87 
	-196.415,300.55 -163.365,267.13 -139.615,286.09 -149.044,314.883 -112.175,351.173 -132.995,380.633 -132.995,407.74 "/>
<circle fill="#242A6F" cx="-138.592" cy="213" r="6.007"/>
<text transform="matrix(1 0 0 1 -127.584 212.9998)" fill="#242A6F" font-family="'Lora-Regular'" font-size="24">London</text>
<text transform="matrix(1 0 0 1 -222.584 341.6658)" fill="#242A6F" font-family="'Lora-Regular'" font-size="12">Mauritania</text>
<text transform="matrix(1 0 0 1 -134.5918 242.6667)" fill="#242A6F" font-family="'Lora-Regular'" font-size="12">France</text>
<image display="none" overflow="visible" opacity="0.4" enable-background="new    " width="4000" height="2120" xlink:href="map.png"  transform="matrix(0.32 0 0 0.3244 -480.2622 -21.6692)">
</image>
<line fill="none" stroke="#242A6F" stroke-miterlimit="10" x1="-138.592" y1="-13.393" x2="-138.592" y2="673"/>
<line fill="none" stroke="#242A6F" stroke-width="6" stroke-linecap="round" stroke-miterlimit="10" x1="-240.425" y1="154" x2="-240.425" y2="195.603"/>
<line fill="none" stroke="#242A6F" stroke-width="6" stroke-linecap="round" stroke-miterlimit="10" x1="-256.425" y1="189.073" x2="-256.425" y2="230.676"/>
<line fill="none" stroke="#242A6F" stroke-width="6" stroke-linecap="round" stroke-miterlimit="10" x1="-240.425" y1="226.021" x2="-240.425" y2="267.624"/>
<linearGradient id="SVGID_1_" gradientUnits="userSpaceOnUse" x1="103.0059" y1="33.0051" x2="103.0057" y2="712.47" gradientTransform="matrix(1 0 0 -1 74.8345 699.0776)">
	<stop  offset="0" style="stop-color:#FCBE7B"/>
	<stop  offset="1" style="stop-color:#375775"/>
</linearGradient>
<rect x="-13.4" y="-13.393" display="none" fill="url(#SVGID_1_)" width="382.481" height="679.466"/>
<polygon fill="#A08678" points="193.67,94.125 193.67,206.256 203,206.256 203,290.386 149.51,290.386 149.51,325.805 173,325.805 
	201.67,336.609 201.67,348.006 193,361.213 212.33,384.017 195.67,426.636 195.67,615.93 145.19,615.93 145.19,392.488 
	113.77,392.488 113.77,368.083 134.59,341.56 97.72,308.889 107.15,282.968 83.4,265.899 84.74,254.798 107.72,254.798 
	107.72,234.623 141,198.261 141,29.07 195.67,29.07 196.33,55.115 236.33,55.115 236.33,94.125 "/>
<line fill="none" stroke="#000000" stroke-width="6" stroke-linecap="round" stroke-miterlimit="10" x1="264.377" y1="74" x2="222.773" y2="74"/>
<g enable-background="new    ">
	<path fill="#1D1D1B" d="M277.416,73.75V71.5h4.5v2.25H277.416z"/>
	<path fill="#1D1D1B" d="M293.764,79v-5.391h-6v-3.34l5.25-12.281h3.75v12.785h2.32v2.836h-2.32V79H293.764z M290.764,70.773h3
		V61.75L290.764,70.773z"/>
	<path fill="#1D1D1B" d="M305.904,79.211c-1.141,0-2.111-0.27-2.912-0.809s-1.391-1.268-1.77-2.186s-0.568-1.99-0.568-3.217v-9
		c0-1.93,0.438-3.447,1.312-4.553s2.188-1.658,3.938-1.658c1.742,0,3.053,0.555,3.932,1.664s1.318,2.625,1.318,4.547v9
		c0,1.883-0.447,3.389-1.342,4.518S307.615,79.211,305.904,79.211z M305.904,76.75c1.5,0,2.25-1.25,2.25-3.75v-9
		c0-0.422-0.016-0.799-0.047-1.131s-0.096-0.668-0.193-1.008s-0.227-0.623-0.387-0.85s-0.377-0.41-0.65-0.551
		s-0.598-0.211-0.973-0.211s-0.699,0.07-0.973,0.211s-0.49,0.324-0.65,0.551s-0.289,0.51-0.387,0.85s-0.162,0.676-0.193,1.008
		s-0.047,0.709-0.047,1.131v9c0,0.492,0.033,0.945,0.1,1.359s0.18,0.809,0.34,1.184s0.393,0.67,0.697,0.885
		S305.467,76.75,305.904,76.75z"/>
	<path fill="#1D1D1B" d="M321.584,65.582c-0.797,0.805-1.898,1.207-3.305,1.207s-2.508-0.402-3.305-1.207s-1.195-1.906-1.195-3.305
		c0-1.391,0.398-2.486,1.195-3.287s1.898-1.201,3.305-1.201s2.508,0.4,3.305,1.201s1.195,1.896,1.195,3.287
		C322.779,63.676,322.381,64.777,321.584,65.582z M316.621,64.099c0.395,0.465,0.947,0.697,1.658,0.697s1.264-0.23,1.658-0.691
		s0.592-1.066,0.592-1.816s-0.197-1.355-0.592-1.816s-0.947-0.691-1.658-0.691c-0.719,0-1.273,0.229-1.664,0.686
		s-0.586,1.061-0.586,1.811S316.227,63.635,316.621,64.099z"/>
	<path fill="#1D1D1B" d="M331.17,79.211c-0.883,0-1.66-0.125-2.332-0.375s-1.223-0.596-1.652-1.037s-0.779-0.992-1.049-1.652
		s-0.459-1.365-0.568-2.115s-0.164-1.598-0.164-2.543V65.5c0-0.945,0.055-1.793,0.164-2.543s0.299-1.455,0.568-2.115
		s0.619-1.209,1.049-1.646s0.98-0.781,1.652-1.031s1.449-0.375,2.332-0.375c0.977,0,1.82,0.145,2.531,0.434s1.279,0.715,1.705,1.277
		s0.746,1.215,0.961,1.957s0.342,1.609,0.381,2.602c0.008,0.148,0.012,0.379,0.012,0.691h-3v-0.668
		c-0.008-0.414-0.023-0.768-0.047-1.061s-0.066-0.596-0.129-0.908s-0.154-0.572-0.275-0.779s-0.273-0.398-0.457-0.574
		s-0.416-0.305-0.697-0.387s-0.609-0.123-0.984-0.123c-0.484,0-0.9,0.078-1.248,0.234s-0.619,0.357-0.814,0.604
		s-0.346,0.576-0.451,0.99s-0.174,0.818-0.205,1.213s-0.047,0.881-0.047,1.459v7.5c0,0.5,0.021,0.953,0.064,1.359
		s0.127,0.811,0.252,1.213s0.287,0.74,0.486,1.014s0.465,0.494,0.797,0.662s0.721,0.252,1.166,0.252s0.828-0.086,1.148-0.258
		s0.572-0.391,0.756-0.656s0.328-0.605,0.434-1.02s0.174-0.816,0.205-1.207s0.047-0.844,0.047-1.359V71.5h3v0.75
		c0,1.086-0.096,2.039-0.287,2.859s-0.5,1.545-0.926,2.174s-1.004,1.107-1.734,1.436S332.201,79.211,331.17,79.211z"/>
</g>
<line fill="none" stroke="#1D1D1B" stroke-width="6" stroke-linecap="round" stroke-miterlimit="10" x1="155.517" y1="475" x2="113.914" y2="475"/>
<g enable-background="new    ">
	<path fill="#1D1D1B" d="M34.556,481.5v-2.25h-2.25V477h2.25v-2.25h2.25V477h2.25v2.25h-2.25v2.25H34.556z"/>
	<path fill="#1D1D1B" d="M51.653,486v-5.391h-6v-3.34l5.25-12.281h3.75v12.785h2.32v2.836h-2.32V486H51.653z M48.653,477.773h3
		v-9.023L48.653,477.773z"/>
	<path fill="#1D1D1B" d="M63.794,486.211c-1.141,0-2.111-0.27-2.912-0.809s-1.391-1.268-1.77-2.186s-0.568-1.99-0.568-3.217v-9
		c0-1.93,0.438-3.447,1.312-4.553s2.188-1.658,3.938-1.658c1.742,0,3.053,0.555,3.932,1.664s1.318,2.625,1.318,4.547v9
		c0,1.883-0.447,3.389-1.342,4.518S65.505,486.211,63.794,486.211z M63.794,483.75c1.5,0,2.25-1.25,2.25-3.75v-9
		c0-0.422-0.016-0.799-0.047-1.131s-0.096-0.668-0.193-1.008s-0.227-0.623-0.387-0.85s-0.377-0.41-0.65-0.551
		s-0.598-0.211-0.973-0.211s-0.699,0.07-0.973,0.211s-0.49,0.324-0.65,0.551s-0.289,0.51-0.387,0.85s-0.162,0.676-0.193,1.008
		s-0.047,0.709-0.047,1.131v9c0,0.492,0.033,0.945,0.1,1.359s0.18,0.809,0.34,1.184s0.393,0.67,0.697,0.885
		S63.356,483.75,63.794,483.75z"/>
	<path fill="#1D1D1B" d="M79.474,472.582c-0.797,0.805-1.898,1.207-3.305,1.207s-2.508-0.402-3.305-1.207s-1.195-1.906-1.195-3.305
		c0-1.391,0.398-2.486,1.195-3.287s1.898-1.201,3.305-1.201s2.508,0.4,3.305,1.201s1.195,1.896,1.195,3.287
		C80.669,470.676,80.271,471.777,79.474,472.582z M74.511,471.099c0.395,0.465,0.947,0.697,1.658,0.697s1.264-0.23,1.658-0.691
		s0.592-1.066,0.592-1.816s-0.197-1.355-0.592-1.816s-0.947-0.691-1.658-0.691c-0.719,0-1.273,0.229-1.664,0.686
		s-0.586,1.061-0.586,1.811S74.116,470.635,74.511,471.099z"/>
	<path fill="#1D1D1B" d="M89.06,486.211c-0.883,0-1.66-0.125-2.332-0.375s-1.223-0.596-1.652-1.037s-0.779-0.992-1.049-1.652
		s-0.459-1.365-0.568-2.115s-0.164-1.598-0.164-2.543V472.5c0-0.945,0.055-1.793,0.164-2.543s0.299-1.455,0.568-2.115
		s0.619-1.209,1.049-1.646s0.98-0.781,1.652-1.031s1.449-0.375,2.332-0.375c0.977,0,1.82,0.145,2.531,0.434s1.279,0.715,1.705,1.277
		s0.746,1.215,0.961,1.957s0.342,1.609,0.381,2.602c0.008,0.148,0.012,0.379,0.012,0.691h-3v-0.668
		c-0.008-0.414-0.023-0.768-0.047-1.061s-0.066-0.596-0.129-0.908s-0.154-0.572-0.275-0.779s-0.273-0.398-0.457-0.574
		s-0.416-0.305-0.697-0.387s-0.609-0.123-0.984-0.123c-0.484,0-0.9,0.078-1.248,0.234s-0.619,0.357-0.814,0.604
		s-0.346,0.576-0.451,0.99s-0.174,0.818-0.205,1.213s-0.047,0.881-0.047,1.459v7.5c0,0.5,0.021,0.953,0.064,1.359
		s0.127,0.811,0.252,1.213s0.287,0.74,0.486,1.014s0.465,0.494,0.797,0.662s0.721,0.252,1.166,0.252s0.828-0.086,1.148-0.258
		s0.572-0.391,0.756-0.656s0.328-0.605,0.434-1.02s0.174-0.816,0.205-1.207s0.047-0.844,0.047-1.359v-0.75h3v0.75
		c0,1.086-0.096,2.039-0.287,2.859s-0.5,1.545-0.926,2.174s-1.004,1.107-1.734,1.436S90.091,486.211,89.06,486.211z"/>
</g>
<g enable-background="new    ">
	<path fill="#1D1D1B" d="M148.812,77.6V67.516h0.686l3.193,7.986v-7.986h0.756V77.6h-0.668l-3.199-7.816V77.6H148.812z"/>
	<path fill="#1D1D1B" d="M154.923,74.272v-0.363c0-0.312,0.002-0.552,0.006-0.718s0.017-0.393,0.038-0.68s0.055-0.511,0.1-0.671
		s0.112-0.344,0.202-0.551s0.2-0.364,0.331-0.472s0.296-0.2,0.495-0.278s0.428-0.117,0.686-0.117s0.486,0.039,0.686,0.117
		s0.364,0.171,0.495,0.278s0.241,0.265,0.331,0.472s0.157,0.391,0.202,0.551s0.078,0.384,0.1,0.671s0.034,0.514,0.038,0.68
		s0.006,0.405,0.006,0.718v0.363c0,0.262-0.001,0.459-0.003,0.592s-0.008,0.317-0.018,0.554s-0.025,0.419-0.047,0.548
		s-0.054,0.289-0.097,0.48s-0.095,0.34-0.155,0.445s-0.138,0.222-0.231,0.349s-0.201,0.223-0.322,0.287s-0.265,0.119-0.431,0.164
		s-0.351,0.067-0.554,0.067s-0.388-0.022-0.554-0.067s-0.31-0.1-0.431-0.164s-0.229-0.16-0.322-0.287s-0.171-0.243-0.231-0.349
		s-0.112-0.254-0.155-0.445s-0.075-0.352-0.097-0.48s-0.037-0.312-0.047-0.548s-0.016-0.421-0.018-0.554
		S154.923,74.534,154.923,74.272z M155.802,73.909v0.363c0,1.102,0.064,1.859,0.193,2.273s0.391,0.621,0.785,0.621
		s0.656-0.207,0.785-0.621s0.193-1.172,0.193-2.273v-0.363c0-0.371-0.004-0.684-0.012-0.938s-0.024-0.497-0.05-0.729
		s-0.061-0.419-0.105-0.56s-0.104-0.265-0.176-0.372s-0.16-0.184-0.264-0.229s-0.228-0.067-0.372-0.067s-0.269,0.022-0.372,0.067
		s-0.192,0.121-0.267,0.229s-0.133,0.23-0.176,0.369s-0.077,0.326-0.103,0.562s-0.042,0.479-0.05,0.729
		S155.802,73.534,155.802,73.909z"/>
	<path fill="#1D1D1B" d="M159.962,77.6v-7.02h0.879v0.99c0.109-0.363,0.307-0.636,0.592-0.817s0.58-0.276,0.885-0.284v0.885
		c-0.043-0.016-0.088-0.023-0.135-0.023c-0.895,0-1.342,0.344-1.342,1.031V77.6H159.962z"/>
	<path fill="#1D1D1B" d="M163.794,77.6l-1.16-7.02h0.768l0.926,5.988l1.002-5.988h0.938l1.078,5.988l0.844-5.988h0.756l-1.148,7.02
		h-0.85l-1.131-5.789l-1.09,5.789H163.794z"/>
	<path fill="#1D1D1B" d="M172.507,77.6l-0.111-0.85c-0.188,0.328-0.419,0.578-0.694,0.75s-0.538,0.258-0.788,0.258
		c-0.363,0-0.686-0.144-0.967-0.431s-0.422-0.663-0.422-1.128c0-0.125,0.002-0.226,0.006-0.302s0.015-0.175,0.032-0.296
		s0.043-0.223,0.076-0.305s0.082-0.183,0.146-0.302s0.144-0.225,0.237-0.316s0.211-0.197,0.352-0.316s0.303-0.232,0.486-0.34
		s0.399-0.223,0.647-0.346s0.522-0.247,0.823-0.372v-0.059c0-0.398-0.018-0.739-0.053-1.022s-0.078-0.502-0.129-0.656
		s-0.116-0.274-0.196-0.36s-0.155-0.14-0.226-0.161s-0.156-0.032-0.258-0.032c-0.105,0-0.199,0.015-0.281,0.044
		s-0.17,0.086-0.264,0.17s-0.172,0.221-0.234,0.41s-0.102,0.427-0.117,0.712v0.041h-0.914c0.047-0.613,0.228-1.095,0.542-1.444
		s0.728-0.524,1.239-0.524c0.285,0,0.537,0.046,0.756,0.138s0.392,0.209,0.519,0.352s0.229,0.313,0.308,0.513
		s0.131,0.393,0.158,0.58s0.041,0.389,0.041,0.604v3.375c0,0.246,0.009,0.504,0.026,0.773s0.036,0.477,0.056,0.621l0.023,0.223
		H172.507z M172.331,76.171v-2.473c-0.285,0.199-0.51,0.359-0.674,0.48s-0.337,0.263-0.519,0.425s-0.318,0.31-0.41,0.442
		s-0.168,0.284-0.229,0.454s-0.091,0.349-0.091,0.536c0,0.336,0.07,0.585,0.211,0.747s0.307,0.243,0.498,0.243
		c0.223,0,0.448-0.08,0.677-0.24S172.202,76.421,172.331,76.171z"/>
	<path fill="#1D1D1B" d="M174.271,79.352v-0.721c0.469-0.031,0.812-0.109,1.028-0.234s0.325-0.301,0.325-0.527
		c0-0.285-0.021-0.562-0.064-0.832l-1.523-6.457h0.891l1.219,5.865l1.195-5.865h0.891l-1.758,7.506
		c-0.117,0.453-0.351,0.772-0.7,0.958s-0.845,0.288-1.485,0.308H174.271z"/>
</g>
<g enable-background="new    ">
	<path fill="#1D1D1B" d="M152.185,459.825v-10.084h0.686l3.193,7.986v-7.986h0.756v10.084h-0.668l-3.199-7.816v7.816H152.185z"/>
	<path fill="#1D1D1B" d="M161.097,459.825l-0.111-0.85c-0.188,0.328-0.419,0.578-0.694,0.75s-0.538,0.258-0.788,0.258
		c-0.363,0-0.686-0.144-0.967-0.431s-0.422-0.663-0.422-1.128c0-0.125,0.002-0.226,0.006-0.302s0.015-0.175,0.032-0.296
		s0.043-0.223,0.076-0.305s0.082-0.183,0.146-0.302s0.144-0.225,0.237-0.316s0.211-0.197,0.352-0.316s0.303-0.232,0.486-0.34
		s0.399-0.223,0.647-0.346s0.522-0.247,0.823-0.372v-0.059c0-0.398-0.018-0.739-0.053-1.022s-0.078-0.502-0.129-0.656
		s-0.116-0.274-0.196-0.36s-0.155-0.14-0.226-0.161s-0.156-0.032-0.258-0.032c-0.105,0-0.199,0.015-0.281,0.044
		s-0.17,0.086-0.264,0.17s-0.172,0.221-0.234,0.41s-0.102,0.427-0.117,0.712v0.041h-0.914c0.047-0.613,0.228-1.095,0.542-1.444
		s0.728-0.524,1.239-0.524c0.285,0,0.537,0.046,0.756,0.138s0.392,0.209,0.519,0.352s0.229,0.313,0.308,0.513
		s0.131,0.393,0.158,0.58s0.041,0.389,0.041,0.604v3.375c0,0.246,0.009,0.504,0.026,0.773s0.036,0.477,0.056,0.621l0.023,0.223
		H161.097z M160.921,458.395v-2.473c-0.285,0.199-0.51,0.359-0.674,0.48s-0.337,0.263-0.519,0.425s-0.318,0.31-0.41,0.442
		s-0.168,0.284-0.229,0.454s-0.091,0.349-0.091,0.536c0,0.336,0.07,0.585,0.211,0.747s0.307,0.243,0.498,0.243
		c0.223,0,0.448-0.08,0.677-0.24S160.792,458.645,160.921,458.395z"/>
	<path fill="#1D1D1B" d="M163.112,459.825v-7.02h0.885v0.65c0.457-0.539,0.977-0.809,1.559-0.809c0.238,0,0.469,0.074,0.691,0.223
		s0.383,0.34,0.48,0.574c0.23-0.262,0.482-0.46,0.756-0.595s0.523-0.202,0.75-0.202c0.359,0,0.673,0.125,0.94,0.375
		s0.401,0.562,0.401,0.938v5.865h-0.879v-5.684c0-0.293-0.065-0.507-0.196-0.642s-0.306-0.202-0.524-0.202
		c-0.363,0-0.734,0.189-1.113,0.568v5.959h-0.879v-5.689c0-0.559-0.248-0.838-0.744-0.838c-0.199,0-0.409,0.062-0.63,0.188
		s-0.427,0.295-0.618,0.51v5.83H163.112z"/>
	<path fill="#1D1D1B" d="M171.005,451.2v-1.049h0.879v1.049H171.005z M171.005,459.825v-7.02h0.879v7.02H171.005z"/>
	<path fill="#1D1D1B" d="M173.308,459.825v-10.084h0.879v3.727c0.184-0.27,0.394-0.474,0.63-0.612s0.478-0.208,0.724-0.208
		c0.168,0,0.314,0.017,0.439,0.05s0.262,0.117,0.41,0.252s0.27,0.319,0.363,0.554s0.173,0.569,0.237,1.005s0.097,0.956,0.097,1.562
		v0.557c0,0.422-0.017,0.803-0.05,1.143s-0.076,0.624-0.129,0.853s-0.12,0.428-0.202,0.598s-0.164,0.303-0.246,0.398
		s-0.176,0.172-0.281,0.229s-0.201,0.094-0.287,0.111s-0.182,0.026-0.287,0.026c-0.594,0-1.066-0.273-1.418-0.82v0.662H173.308z
		 M176.208,456.632v-0.557c0-0.43-0.01-0.805-0.029-1.125s-0.052-0.579-0.097-0.776s-0.09-0.357-0.135-0.48
		s-0.104-0.212-0.176-0.267s-0.137-0.09-0.193-0.105s-0.128-0.023-0.214-0.023c-0.367,0-0.76,0.232-1.178,0.697v4.629
		c0.176,0.211,0.367,0.382,0.574,0.513s0.398,0.196,0.574,0.196c0.078,0,0.142-0.004,0.19-0.012s0.107-0.029,0.176-0.064
		s0.124-0.088,0.167-0.158s0.088-0.171,0.135-0.302s0.084-0.29,0.111-0.478s0.05-0.424,0.067-0.709S176.208,456.999,176.208,456.632
		z"/>
	<path fill="#1D1D1B" d="M178.481,451.2v-1.049h0.879v1.049H178.481z M178.481,459.825v-7.02h0.879v7.02H178.481z"/>
	<path fill="#1D1D1B" d="M183.503,459.825l-0.111-0.85c-0.188,0.328-0.419,0.578-0.694,0.75s-0.538,0.258-0.788,0.258
		c-0.363,0-0.686-0.144-0.967-0.431s-0.422-0.663-0.422-1.128c0-0.125,0.002-0.226,0.006-0.302s0.015-0.175,0.032-0.296
		s0.043-0.223,0.076-0.305s0.082-0.183,0.146-0.302s0.144-0.225,0.237-0.316s0.211-0.197,0.352-0.316s0.303-0.232,0.486-0.34
		s0.399-0.223,0.647-0.346s0.522-0.247,0.823-0.372v-0.059c0-0.398-0.018-0.739-0.053-1.022s-0.078-0.502-0.129-0.656
		s-0.116-0.274-0.196-0.36s-0.155-0.14-0.226-0.161s-0.156-0.032-0.258-0.032c-0.105,0-0.199,0.015-0.281,0.044
		s-0.17,0.086-0.264,0.17s-0.172,0.221-0.234,0.41s-0.102,0.427-0.117,0.712v0.041h-0.914c0.047-0.613,0.228-1.095,0.542-1.444
		s0.728-0.524,1.239-0.524c0.285,0,0.537,0.046,0.756,0.138s0.392,0.209,0.519,0.352s0.229,0.313,0.308,0.513
		s0.131,0.393,0.158,0.58s0.041,0.389,0.041,0.604v3.375c0,0.246,0.009,0.504,0.026,0.773s0.036,0.477,0.056,0.621l0.023,0.223
		H183.503z M183.327,458.395v-2.473c-0.285,0.199-0.51,0.359-0.674,0.48s-0.337,0.263-0.519,0.425s-0.318,0.31-0.41,0.442
		s-0.168,0.284-0.229,0.454s-0.091,0.349-0.091,0.536c0,0.336,0.07,0.585,0.211,0.747s0.307,0.243,0.498,0.243
		c0.223,0,0.448-0.08,0.677-0.24S183.198,458.645,183.327,458.395z"/>
</g>
</svg>
