<?xml version="1.0" encoding="iso-8859-1"?>
<!-- Generator: Adobe Illustrator 15.0.0, SVG Export Plug-In . SVG Version: 6.00 Build 0)  -->
<!DOCTYPE svg PUBLIC "-//W3C//DTD SVG 1.1//EN" "http://www.w3.org/Graphics/SVG/1.1/DTD/svg11.dtd">
<svg version="1.1" id="Ebene_1" xmlns="http://www.w3.org/2000/svg" xmlns:xlink="http://www.w3.org/1999/xlink" x="0px" y="0px"
	 width="108.399px" height="650.2px" viewBox="-175.11 -192.96 108.399 650.2"
	 style="enable-background:new -175.11 -192.96 108.399 650.2;" xml:space="preserve">
<g style="display:none;">
	<g id="XMLID_6_" style="display:inline;">
		<g>
			<path style="fill:#FFFFFF;" d="M-327.26,457.408v-73.3h-28.188v-34.359h28.188V256.7h-28.188V244.9h28.188v-36.68h-22.55v-21.43
				h-14.66v-20.82h11.271V121.4h-11.271V96.09l30.25-30.25v-97.86h-54.28v-30.66h58.011l-1-131.778h59.84V-34.51h-15.74v17.41h15.74
				V9.42h-23.2V78.2h-25.688v29.01h8.277v8.29h-13.26v25.688h37.3v54.7h16.57v28.17h-14.91v8.29h14.91v199.729h-21.54v9.94h21.54
				v15.22L-327.26,457.408z"/>
		</g>
	</g>
</g>
<g style="display:none;">
	<g id="XMLID_8_" style="display:inline;">
		<g>
			<path style="fill:#FFFFFF;" d="M-239.04,457.092v-15.17l-21.569,0.356l-0.141-10.7l21.7,0.25l0.527-198.396l-15.438,0.5v-12.11
				h14.92v-24.358h-16.58v-54.699h-37.29v-29.5h13.261v-4.479h-8.29V75.96h25.689V7.18h23.21v-22.71h-15.75v-21.22h15.75v-158.29
				h54.37v36.472h40.601v44.42h-38.95v27.352h-24.857v13.59h24.857V72.65h6.63v28.682h-44.58v28.729h35.473v327.01L-239.04,457.092z
				"/>
		</g>
	</g>
</g>
<g>
	<g id="XMLID_1_">
		<g>
			<polyline style="fill:#FFFFFF;" points="-136.87,17.54 -84.11,17.54 -84.11,49.04 -66.71,49.04 -66.71,83.84 -92.4,83.84 
				-92.4,141.03 -125.55,141.03 -139.64,141.03 			"/>
			<polyline style="fill:#FFFFFF;" points="-137.15,-71.13 -162.01,-71.13 -162.01,-86.88 -137.15,-86.88 -137.15,-114.23 
				-98.2,-114.23 -98.2,-156.5 -138.81,-156.5 -138.81,-192.96 -84.11,-192.96 -84.11,-72.79 -113.94,-72.79 -113.94,-20.58 
				-136.6,-20.58 			"/>
			<polyline style="fill:#FFFFFF;" points="-139.64,141.03 -139.64,132.14 -175.11,132.14 -175.11,101.25 -130.52,101.25 
				-130.52,74.73 -137.15,74.73 -137.15,17.54 			"/>
			<path style="fill:#FFFFFF;" d="M-139.35,200.701h26.229v49.72h38.96v27.352h-9.949v179.47l-55.53-0.003"/>
		</g>
	</g>
</g>
<g style="display:none;">
	<g id="XMLID_2_" style="display:inline;">
		<g>
			<path style="fill:#FFFFFF;" d="M-57.33,457.24V277.77h9.95v-27.35h-38.95V200.7h-26.239l-0.28-59.672h14.093h33.147V83.84h25.689
				v-34.8h-17.41v-31.5h-52.75l0.261-38.12h22.659v-52.21h29.83v-120.17h52.21v24.028h61.33v62.16L33.42-83.98v24.45L18.72-44.81
				v15.938H-11.75V14.23h-10.77v98.62h16.58v53.87H3.17v15.738h-14.92v66.302H-28.32v11.608h22.38v130.108h-15.75v9.94H-5.12v56.816
				L-57.33,457.24z"/>
		</g>
	</g>
</g>
<g style="display:none;">
	<g id="XMLID_3_" style="display:inline;">
		<g>
			<path style="fill:#FFFFFF;" d="M101.97,457.24V128H48.93v38.722h9.119v15.738H43.13v66.302H26.56v11.608h22.37V390.48H33.19v9.94
				H49.76v56.816L101.97,457.24z"/>
		</g>
	</g>
</g>
<g style="display:none;">
	<g id="XMLID_4_" style="display:inline;">
		<g>
			<path style="fill:#FFFFFF;" d="M158.189,457.24V128h-53.04v-15.15H88.57V14.23h10.78v-43.1h30.46v-15.94l14.71-14.72v-24.45
				l22.79-22.79v-62.16h-10.78v-24.028h52.21v33.148h-26.1v15.75h12.84v66.71l29.643,29.62v27.271H190.82v9h-32.63V14.23
				L137.47,34.95v26.52h47.239v52.21h26.521v343.56H158.189z"/>
		</g>
	</g>
</g>
<g style="display:none;">
	<g id="XMLID_5_" style="display:inline;">
		<g>
			<path style="fill:#FFFFFF;" d="M314.49,457.24V219.76l-16.577-16.58h15.75v-37.29H292.94v-24.03H258.13v315.38H314.49z"/>
			<polygon style="fill:#FFFFFF;" points="255.65,-192.96 255.65,-159.81 255.65,-134.12 281.34,-134.12 281.34,-164.78 
				309.52,-164.78 309.52,-192.96 			"/>
			<polyline style="fill:#FFFFFF;" points="272.22,-20.46 272.22,5.94 276.37,13.4 276.37,49.04 253.16,49.04 253.16,70.58 
				231.61,70.58 231.61,61.47 184.38,61.47 184.38,34.95 205.09,14.23 205.09,-11.46 237.73,-11.46 237.73,-20.46 272.02,-20.46 			
				"/>
		</g>
	</g>
</g>
<g style="display:none;">
	<g id="XMLID_9_" style="display:inline;">
		<g>
			<path style="fill:#FFFFFF;" d="M345.32,50.28h-29.2c-0.24,0-0.42-0.18-0.42-0.42c0-0.229,0.18-0.408,0.42-0.408
				c-0.24,0-0.42-0.182-0.42-0.41V13.5l-4.092-7.359c-0.04-0.07-0.05-0.13-0.05-0.2V-20.12c-0.12-0.062-0.2-0.188-0.2-0.34v-27.09
				l-29.521-29.5c-0.069-0.08-0.12-0.182-0.12-0.302v-66.3h-12.43c-0.229,0-0.41-0.182-0.41-0.41v-15.75
				c0-0.229,0.181-0.41,0.41-0.41h26.11c0.229,0,0.41,0.182,0.41,0.41v25.28h24.859v-30.25c0-0.23,0.181-0.422,0.42-0.422h27.761
				v-27.76c0-0.12,0.05-0.21,0.13-0.302c0.09-0.079,0.189-0.108,0.301-0.108l54.7,1.66c0.223,0,0.398,0.182,0.398,0.408v58.432h7.04
				c0.229,0,0.41,0.182,0.41,0.41v23.21c0,0.108-0.04,0.21-0.109,0.29L398.74-96l6.353,6.34c0.147,0.16,0.147,0.432,0,0.592
				l-19.358,19.35v27.592c0,0.119-0.051,0.22-0.12,0.3L345.74-1.98v51.84C345.74,50.1,345.55,50.28,345.32,50.28z"/>
			<path style="fill:#FFFFFF;" d="M353.385,457.61l0.444-238.521l-16.46-16.438c-0.12-0.108-0.149-0.3-0.093-0.46
				c0.07-0.148,0.223-0.25,0.383-0.25l15.34-0.41v-36.05h-20.31c-0.229,0-0.41-0.188-0.41-0.42v-49.729
				c0-0.229,0.183-0.41,0.41-0.41h21.55c0.23,0,0.41,0.182,0.41,0.41V143.1h32.74c0.229,0,0.409,0.18,0.409,0.41v19.729l13.15,13.12
				c0.06,0.092,0.106,0.182,0.106,0.302v24.868c0,0.229-0.181,0.41-0.409,0.41H354.41v0.001l17.396,17.398h42.931
				c0.229,0,0.41,0.182,0.41,0.422v29c0,0.229-0.182,0.42-0.41,0.42H399.41v208.43H353.385L353.385,457.61z"/>
		</g>
	</g>
</g>
<g style="display:none;">
	<g id="XMLID_7_" style="display:inline;">
		<g>
			<path style="fill:#FFFFFF;" d="M368.45,49.86h-23.2V71.41H323.7v43.102h26.521v27.35h34.81v-25.698h21.54v28.18h33.149v19.892
				l13.261,13.262v24.858h-47.23l18.229,18.238l43.09-0.828v29.828h-15.74V457.61l58.41-0.37l-0.396-121.46l4.97-4.97v-55.53
				l-19.061-19.06v-30.66l12.851-12.852v-74.17h-17.819V120.31h9.939V71.41l25.278-25.271L437.867-41.5l-0.22,0.2L397.66-1.32v52.01
				h-29.21"/>
		</g>
	</g>
</g>
</svg>
