<?xml version="1.0" encoding="iso-8859-1"?>
<!-- Generator: Adobe Illustrator 15.0.0, SVG Export Plug-In . SVG Version: 6.00 Build 0)  -->
<!DOCTYPE svg PUBLIC "-//W3C//DTD SVG 1.1//EN" "http://www.w3.org/Graphics/SVG/1.1/DTD/svg11.dtd">
<svg version="1.1" id="Ebene_1" xmlns="http://www.w3.org/2000/svg" xmlns:xlink="http://www.w3.org/1999/xlink" x="0px" y="0px"
	 width="75.41px" height="651.969px" viewBox="26.56 -195.623 75.41 651.969"
	 style="enable-background:new 26.56 -195.623 75.41 651.969;" xml:space="preserve">
<g style="display:none;">
	<g id="XMLID_6_" style="display:inline;">
		<g>
			<path d="M-327.26,457.409v-73.3h-28.188V349.75h28.188V256.7h-28.188v-11.8h28.188v-36.68h-22.55V186.79h-14.66V165.97h11.271
				V121.4h-11.271V96.09l30.25-30.25V-32.02H-388.5v-30.66h58.01l-1-131.779h59.84V-34.51h-15.74v17.41h15.74V9.42h-23.2V78.2
				h-25.688v29.01h8.276v8.29h-13.26v25.689h37.3v54.7h16.57v28.17h-14.91v8.29h14.91v199.729h-21.54v9.94h21.54v15.22
				L-327.26,457.409z"/>
		</g>
	</g>
</g>
<g style="display:none;">
	<g id="XMLID_8_" style="display:inline;">
		<g>
			<path d="M-239.04,457.093v-15.17l-21.57,0.356l-0.14-10.7l21.7,0.25l0.526-198.396l-15.438,0.5v-12.11h14.92v-24.359h-16.58
				v-54.698h-37.29v-29.5h13.26v-4.479h-8.29V75.96h25.69V7.18h23.21v-22.71h-15.75V-36.75h15.75v-158.29h54.37v36.473h40.6v44.42
				h-38.95v27.351h-24.856v13.59h24.856V72.65h6.63v28.681h-44.58v28.729h35.474v327.01L-239.04,457.093z"/>
		</g>
	</g>
</g>
<g style="display:none;">
	<g id="XMLID_1_" style="display:inline;">
		<g>
			<polyline points="-139.64,141.03 -139.64,132.14 -175.11,132.14 -175.11,101.25 -130.52,101.25 -130.52,74.73 -137.15,74.73 
				-137.15,17.54 -137.15,2.62 -137.15,-71.13 -162.01,-71.13 -162.01,-86.88 -137.15,-86.88 -137.15,-114.23 -98.2,-114.23 
				-98.2,-156.5 -138.81,-156.5 -138.81,-192.96 -84.11,-192.96 -84.11,-72.79 -113.94,-72.79 -113.94,-20.58 -136.6,-20.58 
				-136.87,17.54 -84.11,17.54 -84.11,49.04 -66.71,49.04 -66.71,83.84 -92.4,83.84 -92.4,141.03 -125.55,141.03 -139.64,141.03 			
				"/>
			<path d="M-139.64,457.24V141.03l0.29,59.671h26.23v49.72h38.96v27.353h-9.95v179.47L-139.64,457.24z"/>
		</g>
	</g>
</g>
<g style="display:none;">
	<g id="XMLID_2_" style="display:inline;">
		<g>
			<path d="M-57.33,457.24V277.77h9.95V250.42h-38.95V200.7h-26.24l-0.28-59.671h14.094h33.146V83.84h25.69v-34.8h-17.41v-31.5
				h-52.75l0.26-38.12h22.66v-52.21h29.83v-120.17h52.21v24.029h61.33v62.16L33.42-83.98v24.45l-14.7,14.72v15.938h-30.47V14.23
				H-22.52v98.62h16.58v53.87h9.11v15.737h-14.92v66.303h-16.57v11.607h22.38v130.109h-15.75v9.94h16.57v56.816L-57.33,457.24z"/>
		</g>
	</g>
</g>
<g>
	<g id="XMLID_3_">
		<g>
			<path style="fill:#FFFFFF;" d="M101.97,457.24V128H48.93v38.723h9.12v15.737H43.13v66.303H26.56v11.607h22.37v130.11H33.19v9.94
				h16.57v56.816L101.97,457.24z"/>
		</g>
	</g>
</g>
<g style="display:none;">
	<g id="XMLID_4_" style="display:inline;">
		<g>
			<path d="M158.189,457.24V128h-53.04V112.85H88.57V14.23h10.78V-28.87h30.46V-44.81l14.71-14.72v-24.45l22.79-22.79v-62.16h-10.78
				v-24.029h52.21v33.149h-26.1v15.75h12.84v66.71l29.644,29.62v27.271H190.82v9h-32.63V14.23l-20.72,20.72V61.47h47.24v52.21h26.52
				v343.56H158.189z"/>
		</g>
	</g>
</g>
<g style="display:none;">
	<g id="XMLID_5_" style="display:inline;">
		<g>
			<path d="M314.49,457.24V219.76l-16.576-16.58h15.75v-37.29H292.94v-24.03h-34.81v315.38H314.49z"/>
			<polygon points="255.65,-192.96 255.65,-159.81 255.65,-134.12 281.34,-134.12 281.34,-164.78 309.52,-164.78 309.52,-192.96 			
				"/>
			<polyline points="272.22,-20.46 272.22,5.94 276.37,13.4 276.37,49.04 253.16,49.04 253.16,70.58 231.61,70.58 231.61,61.47 
				184.38,61.47 184.38,34.95 205.09,14.23 205.09,-11.46 237.73,-11.46 237.73,-20.46 272.02,-20.46 			"/>
		</g>
	</g>
</g>
<g style="display:none;">
	<g id="XMLID_9_" style="display:inline;">
		<g>
			<path d="M345.32,50.28H316.12c-0.24,0-0.42-0.18-0.42-0.42c0-0.229,0.18-0.409,0.42-0.409c-0.24,0-0.42-0.181-0.42-0.41V13.5
				l-4.093-7.358c-0.04-0.07-0.05-0.13-0.05-0.2V-20.12c-0.12-0.061-0.2-0.188-0.2-0.34v-27.09l-29.52-29.5
				c-0.07-0.08-0.12-0.181-0.12-0.301v-66.3h-12.43c-0.23,0-0.41-0.183-0.41-0.41v-15.75c0-0.229,0.18-0.41,0.41-0.41h26.109
				c0.23,0,0.41,0.181,0.41,0.41v25.28h24.86v-30.25c0-0.23,0.18-0.423,0.42-0.423h27.76v-27.76c0-0.12,0.05-0.21,0.13-0.301
				c0.09-0.079,0.19-0.109,0.301-0.109l54.7,1.66c0.224,0,0.399,0.183,0.399,0.409v58.431h7.04c0.229,0,0.41,0.183,0.41,0.41v23.21
				c0,0.109-0.04,0.21-0.11,0.29L398.74-96l6.354,6.34c0.146,0.16,0.146,0.433,0,0.593l-19.359,19.35v27.591
				c0,0.119-0.051,0.221-0.12,0.3L345.74-1.98v51.84C345.74,50.1,345.55,50.28,345.32,50.28z"/>
			<path d="M353.385,457.61l0.445-238.521l-16.46-16.438c-0.12-0.109-0.15-0.3-0.094-0.46c0.07-0.149,0.224-0.25,0.384-0.25
				l15.34-0.41v-36.05H332.69c-0.229,0-0.41-0.189-0.41-0.42v-49.729c0-0.229,0.184-0.41,0.41-0.41h21.55
				c0.23,0,0.41,0.183,0.41,0.41V143.1h32.74c0.23,0,0.41,0.18,0.41,0.41v19.729l13.15,13.12c0.06,0.091,0.105,0.181,0.105,0.301
				v24.869c0,0.229-0.18,0.41-0.409,0.41H354.41v0.001l17.396,17.397h42.931c0.229,0,0.41,0.183,0.41,0.423v29
				c0,0.229-0.181,0.42-0.41,0.42H399.41v208.43H353.385L353.385,457.61z"/>
		</g>
	</g>
</g>
<g style="display:none;">
	<g id="XMLID_7_" style="display:inline;">
		<g>
			<path d="M368.45,49.86h-23.2v21.55H323.7v43.103h26.52v27.35h34.81v-25.699h21.54v28.181h33.149v19.892l13.261,13.261v24.859
				H405.75l18.229,18.238l43.09-0.828v29.828h-15.74V457.61l58.41-0.37l-0.396-121.46l4.97-4.97v-55.53l-19.061-19.06v-30.66
				l12.851-12.853v-74.17h-17.819V120.31h9.939v-48.9L525.5,46.14L437.866-41.5l-0.22,0.2L397.66-1.32v52.01h-29.21"/>
		</g>
	</g>
</g>
</svg>
