<?xml version="1.0" encoding="iso-8859-1"?>
<!-- Generator: Adobe Illustrator 16.0.0, SVG Export Plug-In . SVG Version: 6.00 Build 0)  -->
<!DOCTYPE svg PUBLIC "-//W3C//DTD SVG 1.1//EN" "http://www.w3.org/Graphics/SVG/1.1/DTD/svg11.dtd">
<svg version="1.1" xmlns="http://www.w3.org/2000/svg" xmlns:xlink="http://www.w3.org/1999/xlink" x="0px" y="0px" width="386px"
	 height="474px" viewBox="0 0 386 474" style="enable-background:new 0 0 386 474;" xml:space="preserve">
<g id="_x30_">
	<polygon style="fill:none;stroke:#000000;stroke-miterlimit:10;" points="62.945,426.279 62.945,382.062 45.939,382.062 
		45.939,362.333 62.945,362.333 62.945,305.19 45.939,305.19 45.939,299.068 62.945,299.068 62.945,275.938 49.34,275.938 
		49.34,263.014 40.497,263.014 40.497,251.449 47.299,251.449 47.299,223.558 40.497,223.558 40.497,209 58.748,190.748 58.748,131 
		26,131 26,113.5 61,113.5 61,34 95.5,34 95.5,129.5 86,129.5 86,141 95.5,141 95.5,156 81.5,156 81.5,182 81.5,197.5 66,197.5 
		66,216 71,216 71,220 63,220 63,236.5 85.5,236.5 85.5,269.5 95.5,269.5 95.5,285.5 86.5,285.5 86.5,291.5 95.5,291.5 95.5,411 
		82.5,411 82.5,418 95.5,418 95.5,426.279 	"/>
	<rect x="30.5" y="63" style="fill:none;stroke:#000000;stroke-miterlimit:10;" width="9.5" height="16.5"/>
</g>
<g id="_x31_">
	<polyline style="fill:none;stroke:#000000;stroke-miterlimit:10;" points="126.5,426.279 126.5,230.14 105.105,230.14 
		105.105,211.5 132,211.5 132,195.5 128,195.5 128,152 128,107.5 113,107.5 113,98 128,98 128,81.5 151.5,81.5 151.5,56 127,56 
		127,34 95.5,34 95.5,129.5 86,129.5 86,141 95.5,141 95.5,156 81.5,156 81.5,182 81.5,197.5 66,197.5 66,216 71,216 71,220 63,220 
		63,236.5 85.5,236.5 85.5,269.5 95.5,269.5 95.5,285.5 86.5,285.5 86.5,291.5 95.5,291.5 95.5,411 82.5,411 82.5,418 95.5,418 
		95.5,426.279 126.499,426.279 	"/>
</g>
<g id="_x32_">
	<polygon style="fill:none;stroke:#000000;stroke-miterlimit:10;" points="126.499,426.279 126.499,230.14 105.104,230.14 
		105.104,211.5 131.999,211.5 131.999,195.5 127.999,195.5 127.999,152 127.999,107.5 112.999,107.5 112.999,98 127.999,98 
		127.999,81.5 151.499,81.5 151.499,56 126.999,56 126.999,34 160,34 160,106.5 142,106.5 142,138 130.5,138 130.5,161 160,161 
		160,180 170.5,180 170.5,201 155,201 155,235.5 135,235.5 129,235.5 129,271.5 142.5,271.5 142.5,301.5 166,301.5 166,318 160,318 
		160,426.279 	"/>
</g>
<g id="_x33_">
	<polyline style="fill:none;stroke:#000000;stroke-miterlimit:10;" points="160,426.279 160,318 166,318 166,301.5 142.5,301.5 
		142.5,271.5 129,271.5 129,235.5 135,235.5 155,235.5 155,201 170.5,201 170.5,180 160,180 160,161 130.5,161 130.5,138 142,138 
		142,106.5 160,106.5 160,34 191.5,34 191.5,48.5 228.5,48.5 228.5,86 214.75,99.75 214.75,114.5 205.875,123.375 205.875,133 
		187.5,133 187.5,159 181,159 181,218.5 191,218.5 191,251 196.5,251 196.5,260.5 187.5,260.5 187.5,300.5 177.5,300.5 177.5,307.5 
		191,307.5 191,386 181.5,386 181.5,392 191.5,392 191.5,426.279 160,426.279 	"/>
</g>
<g id="_x34_">
	<polygon style="fill:none;stroke:#000000;stroke-miterlimit:10;" points="191,251 196.5,251 196.5,260.5 187.5,260.5 187.5,300.5 
		177.5,300.5 177.5,307.5 191,307.5 191,386 181.5,386 181.5,392 191.5,392 191.5,426.279 223,426.279 223,227.638 191,227.638 	"/>
	<rect x="191.5" y="34" style="fill:none;stroke:#000000;stroke-miterlimit:10;" width="30.5" height="14.5"/>
</g>
<g id="_x35_">
	<g>
		<polyline style="fill:none;stroke:#000000;stroke-miterlimit:10;" points="222,48.5 228.5,48.5 228.5,86 214.75,99.75 
			214.75,114.5 205.875,123.375 205.875,133 187.5,133 187.5,159 		"/>
		<polyline style="fill:none;stroke:#000000;stroke-miterlimit:10;" points="222,48.5 228.5,48.5 228.5,86 214.75,99.75 
			214.75,114.5 205.875,123.375 205.875,133 187.5,133 187.5,159 181,159 181,218.5 191,218.5 191,227.638 		"/>
		<polyline style="fill:none;stroke:#000000;stroke-miterlimit:10;" points="222,48.5 222,34 253.5,34 253.5,54 237.75,54 
			237.75,63.5 245.5,63.5 245.5,103.75 263.375,121.625 263.375,138.069 242.688,138.069 242.688,143.5 223,143.5 223,159 
			210.5,171.5 210.5,187.5 239,187.5 239,219 255,219 255,426.279 223,426.279 223,227.638 191,227.638 		"/>
	</g>
</g>
<g id="_x36_">
	<polygon style="fill:none;stroke:#000000;stroke-miterlimit:10;" points="255,426.279 286,426.279 289,426.279 289,283 279,273 
		288.5,273 288.5,250.5 276,250.5 276,236 255,236 	"/>
	<polyline style="fill:none;stroke:#000000;stroke-miterlimit:10;" points="253.5,54 253.5,34 253.5,69.5 269,69.5 269,51 286,51 
		286,34 253.5,34 	"/>
	<polyline style="fill:none;stroke:#000000;stroke-miterlimit:10;" points="263.5,138.068 263.5,154 266,158.5 266,180 252,180 
		252,193 239,193 239,187.5 210.5,187.5 210.5,171.5 223,159 223,143.5 242.688,143.5 242.688,138.068 263.375,138.068 	"/>
</g>
<g id="_x37_">
	<g>
		<g>
			<polyline style="fill:none;stroke:#000000;stroke-miterlimit:10;" points="253,54 237.25,54 237.25,63.5 245,63.5 245,103.75 
				262.875,121.625 262.875,138.069 			"/>
			<polyline style="fill:none;stroke:#000000;stroke-miterlimit:10;" points="253,54 253,69.5 268.5,69.5 268.5,51 285.5,51 
				285.5,34 318.5,35 318.5,70.5 323,70.5 323,84.5 315,92.5 319,96.5 307.25,108.25 307.25,125 283.125,149.125 283.125,180.5 
				265.5,180.5 			"/>
			<path style="fill:none;stroke:#000000;stroke-miterlimit:10;" d="M253,54"/>
			<polyline style="fill:none;stroke:#000000;stroke-miterlimit:10;" points="263,138.069 263,154 265.5,158.5 265.5,180 251.5,180 
				251.5,193 238.5,193 			"/>
		</g>
		<polyline style="fill:none;stroke:#000000;stroke-miterlimit:10;" points="238.5,193 238.5,219 254.5,219 254.5,235.5 
			275.5,235.5 275.5,250 288,250 288,272.5 278.5,272.5 288.5,282.5 288.5,425.779 285.5,425.779 		"/>
	</g>
	<polyline style="fill:none;stroke:#000000;stroke-miterlimit:10;" points="275.5,235.5 275.5,220 288.5,220 288.5,237 308.5,237 
		308.5,249 316.5,257 316.5,272 288,272 299,283 325,283 325,300.5 315.5,300.5 315.5,426.5 288.5,426.5 	"/>
</g>
<g id="_x38_">
	<g>
		<polyline style="fill:none;stroke:#000000;stroke-miterlimit:10;" points="323,71 350,71 350,34.5 318.5,35.5 318.5,71 323,71 
			323,85 315,93 319,97 307.25,108.75 307.25,125.5 283.125,149.625 283.125,181 265.5,181 		"/>
		<polyline style="fill:none;stroke:#000000;stroke-miterlimit:10;" points="265.5,180.5 251.5,180.5 251.5,193.5 238.5,193.5 		"/>
		<polyline style="fill:none;stroke:#000000;stroke-miterlimit:10;" points="238.5,193.5 238.5,219.5 254.5,219.5 254.5,236 
			275.5,236 		"/>
		<polyline style="fill:none;stroke:#000000;stroke-miterlimit:10;" points="316.5,272.5 288,272.5 299,283.5 325,283.5 325,301 
			315.5,301 315.5,427 350.5,427 350.5,353 353.5,350 353.5,316.5 342,305 342,286.5 349.75,278.75 349.75,234 339,234 339,223 
			345,223 345,193.5 360.25,178.25 307.375,125.375 		"/>
		<polyline style="fill:none;stroke:#000000;stroke-miterlimit:10;" points="275.5,236 275.5,220.5 288.5,220.5 288.5,237.5 
			308.5,237.5 308.5,249.5 316.5,257.5 316.5,272.5 		"/>
	</g>
</g>
</svg>
