@@ -0,0 +1,180 @@
<?xml version="1.0" encoding="iso-8859-1"?>
<!-- Generator: Adobe Illustrator 15.0.0, SVG Export Plug-In . SVG Version: 6.00 Build 0)  -->
<!DOCTYPE svg PUBLIC "-//W3C//DTD SVG 1.1//EN" "http://www.w3.org/Graphics/SVG/1.1/DTD/svg11.dtd">
<svg version="1.1" xmlns="http://www.w3.org/2000/svg" xmlns:xlink="http://www.w3.org/1999/xlink" x="0px" y="0px" width="386px"
	 height="600.665px" viewBox="0 0 386 600.665" style="enable-background:new 0 0 386 600.665;" xml:space="preserve">
<g id="_x30_">
	<g id="XMLID_6_">
		<g>
		</g>
		<g>
			<polygon style="fill:none;stroke:#000000;stroke-width:0.5;stroke-miterlimit:10;" points="96,426.78 62.45,426.78 62.45,382.56 
				45.44,382.56 45.44,361.83 62.45,361.83 62.45,305.69 45.44,305.69 45.44,298.57 62.45,298.57 62.45,276.44 48.84,276.44 
				48.84,263.51 40,263.51 40,250.95 46.8,250.95 46.8,224.06 40,224.06 40,208.79 58.25,190.54 58.25,131.5 25.5,131.5 25.5,113 
				60.5,113 60.5,33.5 96,33.5 96,130 86.5,130 86.5,140.5 96,140.5 96,156.5 82,156.5 82,198 66.5,198 66.5,215.5 71.5,215.5 
				71.5,220.5 63.5,220.5 63.5,236 86,236 86,269 96,269 96,286 87,286 87,291 96,291 96,411.5 83,411.5 83,417.5 96,417.5 			"/>
			<rect x="30" y="62.5" style="fill:none;stroke:#000000;stroke-width:0.5;stroke-miterlimit:10;" width="10.5" height="17.5"/>
		</g>
	</g>
</g>
<g id="_x31_">
	<g id="XMLID_9_">
		<g>
		</g>
		<g>
			<polygon style="fill:none;stroke:#000000;stroke-width:0.5;stroke-miterlimit:10;" points="127,426.78 95,426.78 95,418.5 
				82,418.5 82,410.5 95,410.5 95,292 86,292 86,285 95,285 95,270 85,270 85,237 62.5,237 62.5,219.5 70.5,219.5 70.5,216.5 
				65.5,216.5 65.5,197 81,197 81,155.5 95,155.5 95,141.5 85.5,141.5 85.5,129 95,129 95,33.5 127.5,33.5 127.5,55.5 152,55.5 
				152,82 128.5,82 128.5,98.5 113.5,98.5 113.5,107 128.5,107 128.5,195 132.5,195 132.5,212 105.6,212 105.6,229.64 127,229.64 
							"/>
		</g>
	</g>
</g>
<g id="_x32_">
	<g id="XMLID_1_">
		<g>
		</g>
		<g>
			<polyline style="fill:none;stroke:#000000;stroke-width:0.5;stroke-miterlimit:10;" points="126.5,235.5 126.5,230.14 
				105.1,230.14 105.1,211.5 132,211.5 132,195.5 128,195.5 128,161 128,152 128,107.5 113,107.5 113,98 128,98 128,81.5 
				151.5,81.5 151.5,56 127,56 127,34 160,34 160,106.5 142,106.5 142,138 128.33,138 128.17,161 160,161 160,180 170.5,180 
				170.5,201 155,201 155,235.5 135,235.5 126.5,235.5 			"/>
			<polygon style="fill:none;stroke:#000000;stroke-width:0.5;stroke-miterlimit:10;" points="126.5,235.5 126.67,271.5 
				142.5,271.5 142.5,301.5 166,301.5 166,318 160,318 160,426.28 126.5,426.28 			"/>
		</g>
	</g>
</g>
<g id="_x33_">
	<g id="XMLID_2_">
		<g>
		</g>
		<g>
			<polygon style="fill:none;stroke:#000000;stroke-width:0.5;stroke-miterlimit:10;" points="160,426.28 160,318 166,318 
				166,301.5 142.5,301.5 142.5,271.5 126.67,271.5 126.5,235.5 135,235.5 155,235.5 155,201 170.5,201 170.5,180 160,180 160,161 
				128.17,161 128.33,138 142,138 142,106.5 160,106.5 160,34 191.5,34 191.5,48.5 228.5,48.5 228.5,86 214.75,99.75 214.75,114.5 
				205.88,123.38 205.88,133 187.5,133 187.5,159 181,159 181,218.5 191,218.5 191,251 196.5,251 196.5,260.5 187.5,260.5 
				187.5,300.5 177.5,300.5 177.5,307.5 191,307.5 191,386 181.5,386 181.5,392 191.5,392 191.5,426.28 			"/>
		</g>
	</g>
</g>
<g id="_x34_">
	<g id="XMLID_3_">
		<g>
		</g>
		<g>
			<polygon style="fill:none;stroke:#000000;stroke-width:0.5;stroke-miterlimit:10;" points="191,251 196.5,251 196.5,260.5 
				187.5,260.5 187.5,300.5 177.5,300.5 177.5,307.5 191,307.5 191,386 181.5,386 181.5,392 191.5,392 191.5,426.28 223,426.28 
				223,227.64 191,227.64 			"/>
			<rect x="191.5" y="34" style="fill:none;stroke:#000000;stroke-width:0.5;stroke-miterlimit:10;" width="30.5" height="14.5"/>
		</g>
	</g>
</g>
<g id="_x35_">
	<g id="XMLID_4_">
		<g>
		</g>
		<g>
			<polyline style="fill:none;stroke:#000000;stroke-width:0.5;stroke-miterlimit:10;" points="187.5,159 187.5,133 205.88,133 
				205.88,123.38 214.75,114.5 214.75,99.75 228.5,86 228.5,48.5 222,48.5 222,34 253.5,34 253.5,54 237.75,54 237.75,63.5 
				245.5,63.5 245.5,103.75 263.38,121.62 263.38,138.07 242.69,138.07 242.69,143.5 223,143.5 223,159 210.5,171.5 210.5,187.5 
				239,187.5 239,219 255,219 255,426.28 223,426.28 223,227.64 191,227.64 191,218.5 181,218.5 181,159 187.5,159 			"/>
		</g>
	</g>
</g>
<g id="_x36_">
	<g id="XMLID_5_">
		<g>
		</g>
		<g>
			<polygon style="fill:none;stroke:#000000;stroke-width:0.5;stroke-miterlimit:10;" points="255,426.28 286,426.28 289,426.28 
				289,283 279,273 288.5,273 288.5,250.5 276,250.5 276,236 255,236 			"/>
			<polyline style="fill:none;stroke:#000000;stroke-width:0.5;stroke-miterlimit:10;" points="253.5,34 253.5,54 253.5,69.5 
				269,69.5 269,51 286,51 286,34 253.5,34 			"/>
			<polyline style="fill:none;stroke:#000000;stroke-width:0.5;stroke-miterlimit:10;" points="263.5,138.07 263.5,154 266,158.5 
				266,180 252,180 252,193 239,193 239,187.5 210.5,187.5 210.5,171.5 223,159 223,143.5 242.69,143.5 242.69,138.07 
				263.38,138.07 			"/>
		</g>
	</g>
</g>
<g id="_x37_">
	<g id="XMLID_11_">
		<g>
		</g>
		<g>
			<path style="fill:none;stroke:#000000;stroke-width:0.5;stroke-miterlimit:10;" d="M283.12,180.75H265.5
				c-0.14,0-0.25-0.11-0.25-0.25s0.11-0.25,0.25-0.25c-0.14,0-0.25-0.11-0.25-0.25v-21.44l-2.47-4.44
				c-0.021-0.04-0.03-0.08-0.03-0.12v-15.72c-0.07-0.04-0.12-0.12-0.12-0.21v-16.34l-17.81-17.8c-0.04-0.05-0.07-0.11-0.07-0.18v-40
				h-7.5c-0.14,0-0.25-0.11-0.25-0.25V54c0-0.14,0.11-0.25,0.25-0.25H253c0.14,0,0.25,0.11,0.25,0.25v15.25h15V51
				c0-0.14,0.11-0.25,0.25-0.25h16.75V34c0-0.07,0.03-0.13,0.08-0.18c0.05-0.05,0.11-0.07,0.18-0.07l33,1
				c0.13,0,0.24,0.11,0.24,0.25v35.25H323c0.14,0,0.25,0.11,0.25,0.25v14c0,0.07-0.03,0.13-0.07,0.18l-7.83,7.82l3.83,3.82
				c0.09,0.1,0.09,0.26,0,0.36l-11.68,11.67V125c0,0.07-0.03,0.13-0.07,0.18l-24.06,24.04v31.28
				C283.37,180.64,283.26,180.75,283.12,180.75z"/>
		</g>
	</g>
	<g id="XMLID_10_">
		<g>
		</g>
		<g>
			<path style="fill:none;stroke:#000000;stroke-width:0.5;stroke-miterlimit:10;" d="M288.5,426.03c-0.14,0-0.25-0.11-0.25-0.25
				V282.6l-9.93-9.92c-0.07-0.069-0.09-0.18-0.051-0.279c0.04-0.091,0.131-0.15,0.23-0.15h9.25V272v-21.75H275.5
				c-0.14,0-0.25-0.11-0.25-0.25v-30c0-0.14,0.11-0.25,0.25-0.25h13c0.14,0,0.25,0.11,0.25,0.25v16.75h19.75
				c0.14,0,0.25,0.11,0.25,0.25v11.9l7.93,7.92c0.04,0.05,0.07,0.109,0.07,0.18v15c0,0.14-0.11,0.25-0.25,0.25h-27.9l10.5,10.5H325
				c0.14,0,0.25,0.11,0.25,0.25v17.5c0,0.14-0.11,0.25-0.25,0.25h-9.25V426.5c0,0.14-0.11,0.25-0.25,0.25h-27
				c-0.14,0-0.25-0.11-0.25-0.25s0.11-0.25,0.25-0.25h26.75V300.5c0-0.14,0.11-0.25,0.25-0.25h9.25v-17H299
				c-0.07,0-0.13-0.03-0.18-0.07l-10.59-10.59c-0.03,0.09-0.12,0.16-0.23,0.16h-8.9l9.58,9.57c0.04,0.05,0.07,0.109,0.07,0.18
				v143.28C288.75,425.92,288.64,426.03,288.5,426.03z"/>
		</g>
	</g>
</g>
<g id="_x38_">
	<g id="XMLID_7_">
		<g>
		</g>
		<g>
			<polygon style="fill:none;stroke:#000000;stroke-width:0.5;stroke-linecap:round;stroke-linejoin:round;" points="323,71 350,71 
				350,34.5 318.5,35 318.5,71 			"/>
			<polyline style="fill:none;stroke:#000000;stroke-width:0.5;stroke-linecap:round;stroke-linejoin:round;" points="265.5,180.5 
				251.5,180.5 251.5,193.5 238.5,193.5 238.5,219.5 254.5,219.5 254.5,236 275.5,236 275.5,220.5 288.5,220.5 288.5,237.5 
				308.5,237.5 308.5,249.5 316.5,257.5 316.5,272.5 288,272.5 299,283.5 325,283 325,301 315.5,301 315.5,426.5 350.74,426.28 
				350.5,353 353.5,350 353.5,316.5 342,305 342,286.5 349.75,278.75 349.75,234 339,234 339,223 345,223 345,193.5 360.25,178.25 
				307.38,125.38 307.25,125.5 283.12,149.62 283.12,181 265.5,181 			"/>
		</g>
	</g>
</g>
<g id="Ebene_11">
	<g id="XMLID_13_">
		<g>
		</g>
		<g>
			<path style="fill:none;stroke:#000000;stroke-width:0.5;stroke-miterlimit:10;" d="M288.5,425.84l62.24-0.18
				c0,0.6,0,1.21-0.01,1.81c-0.961,79.471-65.07,144.38-144.021,144.38c-0.02,0-0.05,0-0.07,0
				C127.46,571.81,63.23,507.28,62.7,427.47c-0.01-0.33-0.01-0.67-0.01-1l32.55-0.09l31-0.09l9.439-0.03l55.57-0.149l11.72-0.03
				l19.91-0.061l31.64-0.09L288.5,425.84z"/>
			<path style="fill:none;stroke:#000000;stroke-width:0.5;stroke-linecap:round;stroke-linejoin:round;" d="M207.31,572.09h-0.01
				c-0.05-0.02-0.24-0.109-0.59-0.24c0.31-0.229,0.63-0.46,0.94-0.699c61.27-45.62,79.409-96.41,81.06-143.681
				c0.01-0.239-0.22-1.359-0.21-1.59h26.88c0,0.16-0.12,1.41-0.11,1.59C315.8,442.7,296.71,536.8,207.65,571.15
				c-0.11,0.04-0.23,0.09-0.341,0.13h-0.01l-0.42,0.029l-0.33,0.03l-0.34,0.03l-0.64,0.05c-14.62-5.93-116.64-51.68-110.38-143.95
				c0.02-0.239,0.03-0.479,0.05-0.72"/>
			<path style="fill:none;stroke:#000000;stroke-width:0.5;stroke-linecap:round;stroke-linejoin:round;" d="M159.6,426.38
				l-23.92-0.12l-9.439-0.04c0,0.021,0,0.05,0,0.07c0.01,0.4,0.029,0.78,0.04,1.18c1.729,47.36,17.5,98.33,79.29,143.95l0.01,0.01
				c0.43,0.17,0.79,0.311,1.06,0.42c0.42,0.16,0.641,0.24,0.66,0.24"/>
			<path style="fill:none;stroke:#000000;stroke-width:0.5;stroke-linecap:round;stroke-linejoin:round;" d="M159.6,426.38
				c-0.01-0.06,0.07-0.05,0.4,0H159.6z"/>
			<path style="fill:none;stroke:#000000;stroke-width:0.5;stroke-linecap:round;stroke-linejoin:round;" d="M206.88,571.31
				c-0.05,0.181-0.11,0.36-0.17,0.54c-0.17-0.159-0.33-0.319-0.5-0.479c-48.13-45.9-46.19-127.351-46.46-143.9
				c0.16-0.68-0.13-0.989-0.15-1.09"/>
			<path style="fill:none;stroke:#000000;stroke-width:0.5;stroke-linecap:round;stroke-linejoin:round;" d="M222.88,425.93
				c0,0,0,0.04,0,0.07"/>
			<path style="fill:none;stroke:#000000;stroke-width:0.5;stroke-linecap:round;stroke-linejoin:round;" d="M191.24,426.19
				c0,0,0.01-0.021,0.01-0.07l11.72-0.04l19.91-0.08c0,0.01,0,0.01,0,0.02c3.61,61.19-4.78,110.82-16,145.29"/>
			<path style="fill:none;stroke:#000000;stroke-width:0.5;stroke-linecap:round;stroke-linejoin:round;" d="M191.25,426.11
				c0-0.03,0-0.061,0-0.061"/>
			<path style="fill:none;stroke:#000000;stroke-width:0.5;stroke-linecap:round;stroke-linejoin:round;" d="M191.25,426.11
				c-0.01,0,0,0.01,0,0.01"/>
			<path style="fill:none;stroke:#000000;stroke-width:0.5;stroke-linecap:round;stroke-linejoin:round;" d="M254.5,425.75
				c0,0.04,0.01,0.1,0.02,0.18c0.051,0.42,0.211,1.33,0.211,1.54c-0.29,17.04,0.399,98.101-47.431,143.811
				c-0.2,0.2-0.39,0.38-0.59,0.569c-0.06-0.17-0.11-0.34-0.16-0.51c-11.229-34.47-19.18-84.479-15.3-145.22"/>
		</g>
	</g>
</g>
</svg>
