<?xml version="1.0" encoding="utf-8"?>
<!-- Generator: Adobe Illustrator 16.0.0, SVG Export Plug-In . SVG Version: 6.00 Build 0)  -->
<!DOCTYPE svg PUBLIC "-//W3C//DTD SVG 1.1//EN" "http://www.w3.org/Graphics/SVG/1.1/DTD/svg11.dtd">
<svg version="1.1" xmlns="http://www.w3.org/2000/svg" xmlns:xlink="http://www.w3.org/1999/xlink" x="0px" y="0px" width="360px"
	 height="660px" viewBox="0 0 360 660" enable-background="new 0 0 360 660" xml:space="preserve">
<g id="Layer_1">
	<rect x="-13.4" y="-13.393" display="none" fill="#939598" width="382.481" height="679.466"/>
	<polygon fill="#FFFFFF" points="-105.765,4.07 -105.765,192 -139.044,232.39 -139.044,254.8 -162.024,254.8 -162.024,161.62 
		-230.274,161.62 -230.274,138.75 -162.024,138.75 -162.024,4.07 	"/>
	<polygon fill="#FFFFFF" points="-101.575,407.74 -101.575,655.93 -161.125,655.93 -161.125,583.08 -188.325,583.08 
		-188.325,551.74 -161.125,551.74 -161.125,450.29 -186.655,450.29 -186.655,442.66 -161.125,442.66 -161.125,411.13 
		-196.415,384.87 -196.415,300.55 -163.365,267.13 -139.615,286.09 -149.044,314.88 -112.175,351.17 -132.995,380.63 
		-132.995,407.74 	"/>
	<circle fill="#242A6F" cx="-138.592" cy="213" r="6.007"/>
	<text transform="matrix(1 0 0 1 -127.584 213)" fill="#242A6F" font-family="'Lora-Regular'" font-size="24">London</text>
	<text transform="matrix(1 0 0 1 -222.584 341.666)" fill="#242A6F" font-family="'Lora-Regular'" font-size="12">Mauritania</text>
	<text transform="matrix(1 0 0 1 -134.5918 242.6665)" fill="#242A6F" font-family="'Lora-Regular'" font-size="12">France</text>
	
		<image display="none" overflow="visible" opacity="0.4" width="4000" height="2120" xlink:href="map.png"  transform="matrix(0.32 0 0 0.3244 -480.2622 -21.6689)">
	</image>
	<line fill="none" stroke="#242A6F" stroke-miterlimit="10" x1="-138.592" y1="-13.393" x2="-138.592" y2="673"/>
	
		<line fill="#242A6F" stroke="#242A6F" stroke-width="6" stroke-linecap="round" stroke-miterlimit="10" x1="-240.425" y1="154" x2="-240.425" y2="195.603"/>
	
		<line fill="#242A6F" stroke="#242A6F" stroke-width="6" stroke-linecap="round" stroke-miterlimit="10" x1="-256.425" y1="189.073" x2="-256.425" y2="230.676"/>
	
		<line fill="#242A6F" stroke="#242A6F" stroke-width="6" stroke-linecap="round" stroke-miterlimit="10" x1="-240.425" y1="226.021" x2="-240.425" y2="267.624"/>
	<linearGradient id="SVGID_1_" gradientUnits="userSpaceOnUse" x1="177.8408" y1="666.0732" x2="177.8408" y2="-13.3921">
		<stop  offset="0" style="stop-color:#FCBE7B"/>
		<stop  offset="1" style="stop-color:#375775"/>
	</linearGradient>
	<rect x="-13.4" y="-13.393" display="none" fill="url(#SVGID_1_)" width="382.481" height="679.466"/>
</g>
<g id="Layer_2">
	<polygon opacity="0.4" fill="#FFFFFF" points="193.67,76.33 193.67,200.88 203,200.88 203,294.33 149.51,294.33 149.51,333.67 
		173,333.67 201.67,345.67 201.67,358.33 193,373 212.33,398.33 195.67,445.67 195.67,655.93 145.19,655.93 145.19,407.74 
		113.77,407.74 113.77,380.63 134.59,351.17 97.72,314.88 107.15,286.09 83.4,267.13 84.74,254.8 107.72,254.8 107.72,232.39 
		141,192 141,4.07 195.67,4.07 196.33,33 236.33,33 236.33,76.33 	"/>
	
		<line fill="#242A6F" stroke="#242A6F" stroke-width="6" stroke-linecap="round" stroke-miterlimit="10" x1="257.377" y1="57" x2="215.774" y2="57"/>
	<text transform="matrix(1 0 0 1 267.416 62)" fill="#242A6F" font-family="'Lora-Regular'" font-size="24">-40°C</text>
	
		<line fill="#242A6F" stroke="#242A6F" stroke-width="6" stroke-linecap="round" stroke-miterlimit="10" x1="155.517" y1="475" x2="113.914" y2="475"/>
	<text transform="matrix(1 0 0 1 34.5557 480)" fill="#242A6F" font-family="'Lora-Regular'" font-size="24">+40°C</text>
	<text transform="matrix(1 0 0 1 161.8652 47)" fill="#242A6F" font-family="'Lora-Regular'" font-size="12">Norway</text>
	<text transform="matrix(1 0 0 1 134.7153 461.5293)" fill="#242A6F" font-family="'Lora-Regular'" font-size="12">Namibia</text>
</g>
</svg>
